<svg version="1.1" xmlns="http://www.w3.org/2000/svg" xmlns:xlink="http://www.w3.org/1999/xlink" width="63.85715" height="75.64215" viewBox="0,0,63.85715,75.64215"><g transform="translate(-344.85714,-114.00071)"><g data-paper-data="{&quot;isPaintingLayer&quot;:true}" fill-rule="nonzero" stroke-linejoin="miter" stroke-miterlimit="10" stroke-dasharray="" stroke-dashoffset="0" style="mix-blend-mode: normal"><g><g><g><path d="M344.85714,189.64286v-75.64215h44.50937c3.80272,4.24406 9.60326,8.32964 12.64716,10.30122c1.57095,1.01753 3.149,3.21723 4.73633,3.88558c0.57583,0.24246 1.25126,0.41458 1.96429,0.51336v60.94199z" fill="#bf0000" stroke="none" stroke-width="0" stroke-linecap="butt"/><g><path d="M353.28572,184.45379v-38.71823h48v38.71823z" fill="#ffffff" stroke="none" stroke-width="0" stroke-linecap="butt"/><path d="M355.71429,154.88487l43.71428,-1.51835" fill="none" stroke="#000000" stroke-width="1.5" stroke-linecap="round"/><path d="M355.28572,166.27259l43.71429,-1.51836" fill="none" stroke="#000000" stroke-width="1.5" stroke-linecap="round"/><path d="M354.71429,175.00317l44.28571,-0.75918" fill="none" stroke="#000000" stroke-width="1.5" stroke-linecap="round"/><path d="M354.14286,182.97458l45.42858,-0.37958" fill="none" stroke="#000000" stroke-width="1.5" stroke-linecap="round"/></g></g><g fill="#f3f3f3" stroke="none" stroke-linecap="butt"><path d="M351.66667,126.16667v-12h24.46265v12z" stroke-width="NaN"/><path d="M375.4498,117.1v-2.93333h7.79518v2.93333z" stroke-width="0"/><path d="M382.69799,126.16667v-12h6.56867v12z" stroke-width="0"/></g></g><text transform="translate(354.16667,154.79167) scale(0.20507,0.20507)" font-size="40" xml:space="preserve" fill="#000000" fill-rule="nonzero" stroke="none" stroke-width="1" stroke-linecap="butt" stroke-linejoin="miter" stroke-miterlimit="10" stroke-dasharray="" stroke-dashoffset="0" font-family="Pixel" font-weight="normal" text-anchor="start" style="mix-blend-mode: normal"><tspan x="0" dy="0">Scratch</tspan><tspan x="0" dy="46.150000000000006px">LOL</tspan></text><text transform="translate(349.5,140.23364) scale(0.31414,0.31414)" font-size="40" xml:space="preserve" fill="#000000" fill-rule="nonzero" stroke="none" stroke-width="1" stroke-linecap="butt" stroke-linejoin="miter" stroke-miterlimit="10" stroke-dasharray="" stroke-dashoffset="0" font-family="Pixel" font-weight="normal" text-anchor="start" style="mix-blend-mode: normal"><tspan x="0" dy="0">Zip Disk</tspan></text></g></g></g></svg>