<svg version="1.1" xmlns="http://www.w3.org/2000/svg" xmlns:xlink="http://www.w3.org/1999/xlink" width="112.15049" height="38.64285" viewBox="0,0,112.15049,38.64285"><g transform="translate(-327.34951,-58)"><g data-paper-data="{&quot;isPaintingLayer&quot;:true}" fill-rule="nonzero" stroke-linejoin="miter" stroke-miterlimit="10" stroke-dasharray="" stroke-dashoffset="0" style="mix-blend-mode: normal"><path d="M340.5,87v-27h97v27z" fill="#bbbbbb" stroke="#adadad" stroke-width="4" stroke-linecap="butt"/><path d="M349.92857,78.92857v-9.71429h75.85714v9.71429z" fill="#000000" stroke="#adadad" stroke-width="4" stroke-linecap="butt"/><g><path d="M353.35714,96.64285v-21.71429h63.85715v21.71429z" fill="#bf0000" stroke="none" stroke-width="0" stroke-linecap="butt"/><path d="M360.78572,89.42857v-14.57142h48v14.57142z" fill="#ffffff" stroke="none" stroke-width="0" stroke-linecap="butt"/><path d="M406.92857,77.14286l-43.71428,0.57142" fill="none" stroke="#000000" stroke-width="1.5" stroke-linecap="round"/><path d="M362.78572,82l43.71429,-0.57143" fill="none" stroke="#000000" stroke-width="1.5" stroke-linecap="round"/><path d="M362.21429,85.28571l44.28571,-0.28571" fill="none" stroke="#000000" stroke-width="1.5" stroke-linecap="round"/><path d="M361.64286,88.28571l45.42858,-0.14285" fill="none" stroke="#000000" stroke-width="1.5" stroke-linecap="round"/></g><path d="M341.85715,72.85714c-0.57052,1.33268 -1.36234,2.05764 -2.28052,2.44064c-1.91585,0.79914 -4.38187,0.10943 -6.53568,0.34508c-0.24599,0.02691 0.00113,1.80623 -0.09628,2.32634c-0.14775,0.78888 -1.11088,1.00209 -1.14789,1.64878c-0.03017,0.52732 0.80592,8.45432 -1.87294,7.73917c-1.97634,-0.5276 -2.29233,-3.36932 -2.30104,-5.78571c-0.0077,-2.1358 -1.20484,-14.98613 1.4734,-17.02894c3.17593,-2.42241 3.3511,2.98302 3.81235,5.44569c0.03988,0.2129 -0.11196,0.64102 0.05213,0.65468c0.93523,0.07785 7.53083,-0.97571 7.97411,0.05975z" fill="#000000" stroke="none" stroke-width="0.5" stroke-linecap="butt"/></g></g></svg>