<svg version="1.1" xmlns="http://www.w3.org/2000/svg" xmlns:xlink="http://www.w3.org/1999/xlink" width="275" height="252" viewBox="0,0,275,252"><g transform="translate(-551,-81)"><g data-paper-data="{&quot;isPaintingLayer&quot;:true}" fill-rule="nonzero" stroke-linejoin="miter" stroke-miterlimit="10" stroke-dasharray="" stroke-dashoffset="0" style="mix-blend-mode: normal"><path d="M553,331c0,0 20.37257,-7.73162 33.60769,-9.23929c27.3554,-3.11615 74.4836,-2.78449 112.39231,-2.78449c24.63883,0 58.78966,0.17953 80.36846,2.06619c27.53901,2.40777 44.63154,8.45461 44.63154,8.45461" fill="none" stroke="#000000" stroke-width="4" stroke-linecap="round"/><g stroke-linecap="butt"><path d="M596.5,318v-236h167v236z" fill="#e67600" stroke="#000000" stroke-width="2"/><path d="M633.75,208v-81h94v81z" fill="#e6e6e6" stroke="#000000" stroke-width="2"/><text transform="translate(635.60978,158.68973) rotate(13.03597) scale(0.5,0.5)" font-size="40" xml:space="preserve" fill="#000000" fill-rule="nonzero" stroke="none" stroke-width="1" stroke-linecap="butt" stroke-linejoin="miter" stroke-miterlimit="10" stroke-dasharray="" stroke-dashoffset="0" font-family="Sans Serif" font-weight="normal" text-anchor="start" style="mix-blend-mode: normal"><tspan x="0" dy="0">My Room</tspan></text><path d="M686.75,183.5c2.5,0 2.5,2.5 2.5,2.5l-0.01873,3.30546c-0.43526,1.6421 -0.54892,3.4054 -1.30577,4.92629c-3.88519,7.80731 -15.17523,5.26825 -22.1755,5.26825c-3,0 -6.00086,0.07173 -9,0c-1.32005,-0.03157 -2.73949,0.32146 -3.95671,-0.1903c-1.24,-0.52134 -2.09972,-1.70473 -2.97665,-2.72473c-4.74642,-5.52082 -4.56664,-10.8429 -4.56664,-17.58497c0,0 0,-2.5 2.5,-2.5c2.5,0 2.5,2.5 2.5,2.5c0,4.41502 -0.62305,7.83465 1.66228,11.74518c0.81311,1.39134 1.2752,3.40762 2.79443,3.94512c0.64487,0.22816 1.35959,-0.16877 2.04329,-0.1903c2.99851,-0.09442 6,0 9,0c3.33333,0 6.66667,0 10,0c1.68229,0 3.47716,0.80458 5.04329,0.1903c2.12485,-0.83342 3.0702,-4.20154 3.47544,-5.99576l-0.01873,-2.69454c0,0 0,-2.5 2.5,-2.5z" fill="#000000" stroke="none" stroke-width="0.5"/><path d="M653.25,178c0,-2.48528 2.01472,-4.5 4.5,-4.5c2.48528,0 4.5,2.01472 4.5,4.5c0,2.48528 -2.01472,4.5 -4.5,4.5c-2.48528,0 -4.5,-2.01472 -4.5,-4.5z" fill="#000000" stroke="none" stroke-width="0.5"/><path d="M669.25,180c0,-2.48528 2.01472,-4.5 4.5,-4.5c2.48528,0 4.5,2.01472 4.5,4.5c0,2.48528 -2.01472,4.5 -4.5,4.5c-2.48528,0 -4.5,-2.01472 -4.5,-4.5z" fill="#000000" stroke="none" stroke-width="0.5"/></g><path d="M617.5,209.5c0,-4.97056 -4.02944,-9 -9,-9c-4.97056,0 -9,4.02944 -9,9c0,4.97056 4.02944,9 9,9c4.97056,0 9,-4.02944 9,-9z" fill="#000000" stroke="#000000" stroke-width="4" stroke-linecap="butt"/></g></g></svg>