<svg version="1.1" xmlns="http://www.w3.org/2000/svg" xmlns:xlink="http://www.w3.org/1999/xlink" width="242.45946" height="196.73907" viewBox="0,0,242.45946,196.73907"><g transform="translate(-78.5,-68.00002)"><g data-paper-data="{&quot;isPaintingLayer&quot;:true}" stroke-linecap="butt" stroke-linejoin="miter" stroke-miterlimit="10" stroke-dasharray="" stroke-dashoffset="0" style="mix-blend-mode: normal"><path d="M78.5,264.44527v-196.44526h242.45946v196.44526z" fill="#0024ff" fill-rule="nonzero" stroke="none" stroke-width="0"/><text transform="translate(84.15394,172.40217) scale(0.4546,0.50201)" font-size="40" xml:space="preserve" fill="#000000" fill-rule="nonzero" stroke="none" stroke-width="1" stroke-linecap="butt" stroke-linejoin="miter" stroke-miterlimit="10" stroke-dasharray="" stroke-dashoffset="0" font-family="Pixel" font-weight="normal" text-anchor="start" style="mix-blend-mode: normal"><tspan x="0" dy="0">Computer</tspan></text><path d="M87.31438,143.24396v-65.78213h84.25519v65.78213z" fill="#ffffff" fill-rule="nonzero" stroke="#000000" stroke-width="8"/><path d="M175.29951,96.04549v-13.9679h28.35855v13.9679z" fill="#bbbbbb" fill-rule="nonzero" stroke="#adadad" stroke-width="4"/><path d="M178.05601,91.8699v-5.02549h22.1773v5.02549z" fill="#000000" fill-rule="nonzero" stroke="#adadad" stroke-width="4"/><path d="M175.69627,88.72897c-0.1668,0.68943 -0.39829,1.06448 -0.66672,1.26262c-0.56011,0.41342 -1.28107,0.05661 -1.91075,0.17852c-0.07192,0.01392 0.00033,0.93442 -0.02815,1.20348c-0.0432,0.40811 -0.32477,0.51841 -0.33559,0.85296c-0.00882,0.2728 0.23562,4.37367 -0.54757,4.0037c-0.5778,-0.27294 -0.67018,-1.74305 -0.67272,-2.99312c-0.00225,-1.10491 -0.35224,-7.75277 0.43076,-8.80958c0.9285,-1.25318 0.97971,1.5432 1.11456,2.81722c0.01166,0.11014 -0.03273,0.33162 0.01524,0.33869c0.27342,0.04027 2.20168,-0.50476 2.33128,0.03091z" fill="#000000" fill-rule="nonzero" stroke="none" stroke-width="0.5"/><g stroke="none" stroke-width="1"><path d="M221.94613,203.78381c0,-11.90857 9.6538,-21.56237 21.56237,-21.56237c11.90857,0 21.56237,9.6538 21.56237,21.56237c0,11.90857 -9.6538,21.56237 -21.56237,21.56237c-11.90857,0 -21.56237,-9.6538 -21.56237,-21.56237z" fill="#0077b8" fill-rule="evenodd"/><path d="M222.2556,200.13536c-0.03535,0.20658 -0.06755,0.41472 -0.09661,0.62287c0.02906,-0.21207 0.06127,-0.42022 0.09661,-0.62287z" fill="#74b140" fill-rule="evenodd"/><path d="M222.42526,199.89502c-0.06453,0.07285 -0.12187,0.15176 -0.17123,0.23564c0.02828,-0.16442 0.05812,-0.3278 0.08954,-0.49013v-0.00471c0.0322,-0.16338 0.06598,-0.32518 0.10132,-0.48698c0.05133,0.02094 0.09904,0.04983 0.14138,0.08561c0.08719,0.07462 0.18301,0.20815 0.15709,0.33068c-0.03063,0.1461 -0.21993,0.22386 -0.31811,0.32989z" fill="#74b140" fill-rule="evenodd"/><path d="M224.85075,193.40951c-0.10898,0.10176 -0.23642,0.18174 -0.37545,0.23564c0.07907,-0.14924 0.16023,-0.2969 0.24349,-0.443c0.58077,-1.02334 1.24434,-1.99742 1.98407,-2.91248c0.11939,-0.14819 0.24061,-0.29507 0.36367,-0.44064c0.15175,0.04225 0.28707,0.12963 0.38802,0.25056c0.15395,0.18772 0.12881,0.28748 0.02985,0.44457c0.09123,-0.0113 0.18069,-0.03399 0.26627,-0.06755c0.10304,-0.0266 0.21114,-0.0266 0.31418,0c0.20422,0.05734 0.36602,0.21757 0.49013,0.38252c0.20186,0.26784 0.33068,0.58831 0.47756,0.88835l0.46656,0.95276c0.13353,0.27177 0.38723,0.86008 -0.0055,1.05723c-0.14591,0.06334 -0.31531,0.03638 -0.43436,-0.06912c-0.08404,-0.06362 -0.205,-0.24899 -0.32518,-0.30397c0.04016,0.3374 0.13403,0.66621 0.27805,0.97397c0.02333,0.04334 0.01903,0.09635 -0.01099,0.13536c-0.03002,0.03901 -0.08016,0.05675 -0.12803,0.04529c-0.11026,-0.02409 -0.22412,-0.02675 -0.33539,-0.00785c0.05655,0.25999 0.05105,0.52783 -0.18458,0.70298c-0.03311,0.01882 -0.07302,0.02139 -0.10827,0.00698c-0.03525,-0.01441 -0.06193,-0.0442 -0.07239,-0.08082c-0.24829,-0.74343 -0.80802,-1.34188 -1.53321,-1.63925c-0.05001,-0.01758 -0.08347,-0.06481 -0.08347,-0.11782c0,-0.05301 0.03346,-0.10024 0.08347,-0.11782c0.27962,-0.07383 0.58202,-0.06755 0.85379,-0.16887c0.14262,-0.04457 0.26551,-0.13695 0.34796,-0.26156c0.06833,-0.12803 -0.00157,-0.25684 -0.03927,-0.38644c-0.13196,-0.45007 -0.32596,-1.07215 -0.89856,-1.08472c-0.55532,-0.01492 -0.4375,0.66528 -0.58124,1.02109c-0.12332,0.29376 -0.38016,0.51526 -0.70691,0.40451c-0.1186,-0.04006 -0.24899,-0.14295 -0.36995,-0.0542c-0.06452,0.06407 -0.11414,0.14158 -0.14531,0.227c-0.07148,0.15081 -0.13039,0.30633 -0.24899,0.42729z" fill="#74b140" fill-rule="evenodd"/><path d="M232.6904,213.60123c0.18772,0.6535 -0.50976,0.99439 -0.72105,1.5175c-0.25842,0.63701 -0.0055,1.36434 -0.29298,2.00213c-0.11495,0.25811 -0.3235,0.46301 -0.58359,0.57338c-0.31811,0.14217 -0.64093,0.21207 -0.89778,0.46421c-0.4697,0.46106 -0.66214,1.17426 -0.97161,1.77435c-0.24899,-0.21757 -0.48463,-0.44221 -0.72026,-0.67078c-0.38959,-0.3778 -0.76661,-0.76739 -1.12635,-1.17347c-0.57876,-0.65172 -1.11753,-1.33789 -1.61333,-2.05476c-1.29252,-1.8674 -2.28035,-3.92817 -2.92661,-6.10536l0.00864,0.00471c0.47599,-0.38802 0.77132,-1.18211 1.50651,-0.97868c0.03647,0.01091 0.06603,0.03777 0.08038,0.07303c0.01435,0.03526 0.01194,0.07513 -0.00655,0.10841c-0.01964,0.04241 -0.03849,0.08561 -0.05812,0.12881l1.25673,0.16102c0.34717,0.04399 0.80666,0.02278 1.05408,0.3079c0.10604,0.12253 0.16023,0.28041 0.26313,0.40451c0.12978,0.14253 0.29473,0.24844 0.47834,0.30711c0.3024,0.11232 0.63308,0.15002 0.93077,0.28041c0.25074,0.09913 0.46755,0.26849 0.62444,0.48777c0.06894,0.10313 0.1118,0.22146 0.12489,0.34482c0.01807,0.1838 -0.04634,0.28748 0.13746,0.41237c0.1838,0.12489 0.41237,0.21129 0.61109,0.31418c0.16573,0.0864 0.33068,0.17908 0.49955,0.25763c0.34796,0.16652 0.69199,0.10525 1.0478,0.20815c0.13436,0.0413 0.25581,0.1165 0.35267,0.21836c0.04436,0.05156 0.09184,0.10034 0.14217,0.1461c0.09818,0.07697 0.216,0.0754 0.33382,0.0974c0.23092,0.0432 0.40373,0.15788 0.46578,0.3888z" fill="#74b140" fill-rule="evenodd"/><path d="M222.14811,204.31203c-0.06023,-0.03446 -0.13375,-0.03638 -0.1957,-0.00511c-0.00628,-0.17437 -0.00628,-0.34796 -0.00628,-0.52311c0,-0.16285 0.00314,-0.32596 0.00943,-0.48934c0,-0.05184 0,-0.10447 0,-0.15709c0.00393,-0.11311 0.00785,-0.227 0.01335,-0.3401c0.00314,-0.07069 0.01021,-0.14138 0.01021,-0.21129c0.00628,-0.12332 0.01414,-0.23956 0.02278,-0.35895c0.00628,-0.0974 0.01492,-0.19401 0.02278,-0.29062l0.01728,-0.1241c0.03194,-0.35398 0.07252,-0.70586 0.12175,-1.05565c0.05341,0.06284 0.13667,0.08483 0.25684,0.01335c0.12017,-0.07148 0.17202,-0.20893 0.21286,-0.3346c0.07855,-0.24035 0.13039,-0.73676 0.43593,-0.8153c0.25135,-0.06362 0.36838,0.2325 0.38095,0.42729c0.00133,0.1478 -0.01663,0.29513 -0.05341,0.43829c0.34246,-0.28041 0.87343,-0.63308 0.3079,-0.95355c-0.17765,-0.09219 -0.31682,-0.24444 -0.39273,-0.42965c-0.10368,-0.22464 -0.23171,-0.35346 -0.48306,-0.39273c-0.08996,-0.01324 -0.18086,-0.01902 -0.27177,-0.01728c0.08483,-0.35031 0.17908,-0.69827 0.28041,-1.0423c0.00864,-0.02828 0.01728,-0.05655 0.02513,-0.08404c0.03063,-0.10211 0.06205,-0.20422 0.09425,-0.30554c0.01178,-0.03535 0.02435,-0.07619 0.03692,-0.11389c0.0487,-0.15081 0.09897,-0.30162 0.15081,-0.45085l0.07855,-0.22071l0.07462,-0.20422c0.03377,-0.08876 0.06755,-0.1783 0.10211,-0.26706c0.02042,-0.05263 0.04006,-0.10525 0.06048,-0.15709c0.06205,0.04634 0.12253,0.0919 0.17908,0.13588c0.59066,0.46892 1.07529,1.21039 0.9182,1.98249c0.17594,0 0.3189,-0.1461 0.37231,-0.32047c0.06755,-0.22386 0.00079,-0.46892 -0.05105,-0.68963c-0.00992,-0.03714 -0.00218,-0.07679 0.02099,-0.10747c0.02317,-0.03068 0.05917,-0.04899 0.09761,-0.04962c0.28677,0.04241 0.56687,-0.11056 0.68619,-0.37475c0.11932,-0.26419 0.04891,-0.57548 -0.1725,-0.76259c-0.02684,-0.02705 -0.03967,-0.06498 -0.03475,-0.10277c0.00491,-0.03778 0.02702,-0.07117 0.05989,-0.09046c0.44537,-0.18244 0.75888,-0.58947 0.82159,-1.06665c0.0013,-0.04358 0.02509,-0.08338 0.06287,-0.10515c0.03778,-0.02177 0.08414,-0.0224 0.1225,-0.00167c0.40058,0.17123 0.86243,0.3943 1.04623,0.81845c0.10447,0.23878 0.01257,0.59302 0.28434,0.71869c0.32204,0.14845 0.64722,-0.10368 0.88835,-0.29376c0.03601,-0.03303 0.08789,-0.04219 0.13304,-0.02349c0.04514,0.0187 0.07535,0.06186 0.07747,0.11068c0.10358,0.94985 0.36925,1.8749 0.78546,2.73496c0.02708,0.04847 0.01868,0.10903 -0.02058,0.14829c-0.03926,0.03926 -0.09982,0.04767 -0.14829,0.02058c-0.22386,-0.11939 -0.51369,0.18066 -0.70691,0.26863c-0.22228,0.10132 -0.43907,0.08483 -0.66921,0.01728c-0.29533,-0.0864 -0.55532,-0.17673 -0.864,-0.09818c-0.21525,0.05527 -0.40931,0.17307 -0.55767,0.33853l0.75168,0.01728c0.03847,0.0007 0.07449,0.01898 0.09777,0.04961c0.02328,0.03063 0.03125,0.07023 0.02162,0.10748c-0.07352,0.37325 0.05655,0.75748 0.34167,1.00931c0.02995,0.0315 0.04137,0.0763 0.03015,0.1183c-0.01122,0.04199 -0.04347,0.07513 -0.08514,0.08749c-0.205,0.06441 -0.41079,0.14295 -0.61973,0.19322c-0.10666,0.03777 -0.22489,0.02292 -0.3189,-0.04006c-0.10525,-0.07933 -0.1673,-0.21679 -0.22543,-0.33932c-0.02184,0.03861 -0.04821,0.07447 -0.07855,0.10682c-0.13039,0.13746 -0.3079,0.15788 -0.47991,0.216c-0.24271,0.08169 -0.52233,0.31104 -0.38723,0.59695c0.02111,0.03841 0.02068,0.08506 -0.00114,0.12307c-0.02182,0.03802 -0.06187,0.06192 -0.10569,0.06308c-0.47975,0.04633 -0.91952,0.28737 -1.21667,0.66685c-0.06441,0.07933 -0.17673,0.02356 -0.20579,-0.05498c-0.00042,-0.0026 -0.00042,-0.00525 0,-0.00785c0.00628,0.15945 0.06127,0.32518 0.04791,0.48227c-0.01648,0.15552 -0.08037,0.30222 -0.18301,0.42022c-0.25292,0.30868 -0.64407,0.41001 -0.96533,0.62287c-0.75954,0.50191 -0.04948,1.49865 -0.50191,2.16315c-0.01966,0.03264 -0.05315,0.05452 -0.09093,0.05942c-0.03779,0.0049 -0.07574,-0.00773 -0.10307,-0.03428c-0.17363,-0.20501 -0.27929,-0.45889 -0.3024,-0.72655c-0.01257,-0.16259 0.05184,-0.31968 0.04006,-0.47677c-0.00443,-0.06926 -0.04333,-0.13166 -0.10356,-0.16612z" fill="#74b140" fill-rule="evenodd"/><path d="M223.03477,206.92645c-0.21207,-0.05812 -0.42415,-0.07619 -0.59459,-0.22857c-0.11311,-0.10054 -0.18223,-0.22386 -0.33225,-0.27255c-0.01964,-0.1618 -0.0377,-0.32361 -0.0542,-0.48698c0.08483,0.02828 0.16652,0.06519 0.23564,0.09504c0.1508,0.06539 0.29538,0.14425 0.432,0.23564c0.12096,0.08169 0.23171,0.19951 0.36131,0.26548c0.1728,0.08719 0.3778,0.04791 0.56553,0.04634c0.18772,-0.00157 0.37466,0.00628 0.56239,0.01807c0.0974,0.00707 0.17516,0.13667 0.08719,0.2105c-0.17908,0.15081 -0.38566,0.31654 -0.62837,0.33775c-0.25135,0.02121 -0.40608,-0.15552 -0.63465,-0.22071z" fill="#74b140" fill-rule="evenodd"/><path d="M224.79105,207.14402c0.23092,0.00628 0.52783,0.1296 0.38016,0.41079c-0.02185,0.0382 -0.06283,0.0614 -0.10682,0.06048c-0.25606,-0.01649 -0.46185,0.05812 -0.70691,0.09818c-0.11708,0.02454 -0.23911,0.00317 -0.34089,-0.05969c-0.03624,-0.00521 -0.06885,-0.02481 -0.09044,-0.05439c-0.02159,-0.02957 -0.03033,-0.0666 -0.02424,-0.10271c0.00294,-0.05079 0.03293,-0.09608 0.07855,-0.1186c0.07383,-0.09268 0.15395,-0.20422 0.2647,-0.23564c0.16023,-0.04634 0.38173,-0.00314 0.54589,0.00157z" fill="#74b140" fill-rule="evenodd"/><path d="M227.30844,189.55762c0.1529,-0.17751 0.30999,-0.35188 0.47127,-0.52311c0.01713,0.02472 0.03186,0.05102 0.04399,0.07855c0.11782,0.26156 -0.06912,0.46263 -0.33382,0.46263c-0.06085,-0.00146 -0.1215,-0.0075 -0.18144,-0.01807z" fill="#74b140" fill-rule="evenodd"/><path d="M228.32583,188.8635c-0.04642,0.01901 -0.09971,0.00841 -0.13532,-0.02693c-0.04268,-0.03387 -0.08813,-0.06409 -0.13588,-0.09033c0.11834,-0.12096 0.23799,-0.24114 0.35895,-0.36052c0,0.01885 0,0.0377 0,0.05812c-0.00314,0.10211 -0.01021,0.20343 -0.01021,0.30554c-0.00058,0.05016 -0.03112,0.0951 -0.07754,0.11412z" fill="#74b140" fill-rule="evenodd"/><path d="M228.60445,188.20035c0.14767,-0.1406 0.29769,-0.27962 0.4485,-0.41708c0.00943,-0.00785 0.01885,-0.01571 0.02749,-0.02435c0.13903,-0.12489 0.27962,-0.24742 0.42179,-0.36916l0.06284,-0.05341c0.13667,-0.1152 0.27491,-0.23014 0.41472,-0.34482l0.04791,-0.03849c0.15395,-0.12358 0.30947,-0.24506 0.46656,-0.36445c0.28826,0.06519 0.61344,0.05577 0.82709,0.30476c0.02991,0.03155 0.0414,0.07631 0.03037,0.11836c-0.01103,0.04205 -0.04302,0.07541 -0.08456,0.08821l-0.62837,0.17516c-0.16495,0.04556 -0.36131,0.07226 -0.50898,0.16259c-0.13353,0.0809 -0.17908,0.2325 -0.33068,0.29062c-0.12724,0.04948 -0.25606,0.02435 -0.38723,0.02435c-0.27098,0.00471 -0.17437,0.13667 -0.27098,0.30633c-0.05033,0.0857 -0.13717,0.14359 -0.23564,0.15709c-0.10132,0.02121 -0.20422,-0.01571 -0.30083,-0.01571z" fill="#74b140" fill-rule="evenodd"/><path d="M235.62958,193.51319c-0.15,0.02796 -0.2942,0.08107 -0.4265,0.15709c-0.11703,0.07462 -0.19401,0.18537 -0.29376,0.27884c-0.1893,0.17594 -0.37859,0.18772 -0.62837,0.17594c-0.61815,-0.02906 -0.89542,0.58359 -1.08943,1.07608c-0.1673,0.42415 -0.35031,0.84908 -0.75247,1.09964c-0.03836,0.0216 -0.08526,0.02141 -0.12344,-0.0005c-0.03818,-0.02191 -0.06201,-0.06231 -0.06271,-0.10632c-0.01824,-0.22626 -0.1604,-0.42377 -0.36916,-0.5129c-0.10682,-0.04477 -0.23564,-0.05734 -0.31418,-0.14845c-0.0974,-0.10761 -0.06362,-0.2215 -0.05577,-0.3511c0.01257,-0.22778 -0.07462,-0.40451 -0.17202,-0.60637c-0.13667,-0.28276 -0.21836,-0.55453 -0.17908,-0.86872c0.0377,-0.30554 0.1618,-0.59066 0.28355,-0.87029c0.13981,-0.33068 0.30711,-0.67864 0.31418,-1.04701c0.00707,-0.432 -0.23721,-0.76896 -0.46421,-1.11142c-0.19636,-0.29769 -0.12881,-0.6912 -0.37388,-0.95512c-0.22574,-0.24561 -0.58074,-0.32432 -0.88914,-0.19715c-0.03311,0.01882 -0.07302,0.02139 -0.10827,0.00698c-0.03525,-0.01441 -0.06193,-0.0442 -0.07239,-0.08082c-0.03192,-0.13536 -0.00541,-0.2779 0.07305,-0.39273l-0.29062,-0.09504c-0.04154,-0.01256 -0.07359,-0.04577 -0.08464,-0.08774c-0.01105,-0.04197 0.00047,-0.08666 0.03044,-0.11805c0.04954,-0.06204 0.10931,-0.11517 0.17673,-0.15709c-0.13216,-0.11844 -0.20877,-0.28675 -0.21129,-0.46421c0.00043,-0.06793 0.05539,-0.12289 0.12332,-0.12332l0.77289,-0.00393l-0.10211,-0.3833c-0.01025,-0.03717 -0.00264,-0.077 0.02059,-0.10777c0.02323,-0.03077 0.05945,-0.049 0.09801,-0.04932c0.43122,0.04791 0.7509,-0.09033 1.13813,-0.24742c0.27177,-0.11232 0.58202,-0.10682 0.87186,-0.10054c0.25853,-0.0043 0.51535,0.04269 0.75561,0.13824c0.12336,0.05511 0.23527,0.13291 0.32989,0.22935l0.07069,0.07855c0.06362,0.05027 0.08483,0.05027 0.06362,0c0.01257,-0.02828 -0.02121,-0.1186 -0.01728,-0.15709c0.01885,-0.20736 0.21679,-0.32989 0.4053,-0.35267c0.18851,-0.02278 0.36916,0.03849 0.55767,-0.00943c0.16495,-0.0432 0.31732,-0.13431 0.47913,-0.19165c0.24428,-0.0864 0.54825,-0.11389 0.74304,0.08954c0.08611,0.08765 0.13459,0.20545 0.1351,0.32832c0.39351,-0.07855 1.05408,-0.19558 1.10514,0.23564c0.01117,0.09112 -0.0201,0.18232 -0.08483,0.24742c0.07985,-0.0024 0.15952,0.00876 0.23564,0.03299c0.04155,0.0128 0.07353,0.04616 0.08456,0.08821c0.01103,0.04205 -0.00045,0.08682 -0.03037,0.11836c-0.22935,0.23642 0.1241,0.09818 0.24192,0.06205c0.12438,-0.03764 0.2543,-0.05358 0.38409,-0.04713c0.25912,0.01298 0.5071,0.10941 0.70691,0.27491c0.03194,0.03114 0.04429,0.07724 0.0322,0.12017c-0.09347,0.37859 -0.54511,0.25213 -0.74383,0.50741c-0.11782,0.15081 -0.09818,0.38016 -0.12646,0.56003c-0.03053,0.16713 -0.0967,0.32573 -0.19401,0.46499c-0.24742,0.41001 0.10761,0.97554 -0.12017,1.40361c-0.09764,0.19357 -0.33156,0.27432 -0.52783,0.18223l-0.09425,0.13117c0.30856,0.28062 0.33979,0.75507 0.07069,1.07372c-0.02316,0.02835 -0.05972,0.04213 -0.09583,0.03613c0.03489,0.03752 0.04066,0.09362 0.01414,0.13746c-0.25213,0.45478 -0.76975,0.50348 -1.21982,0.60951z" fill="#74b140" fill-rule="evenodd"/><path d="M237.09446,195.46191c-0.22621,-0.01807 -0.54903,-0.06912 -0.68963,-0.26941c-0.15709,-0.22464 -0.01335,-0.60166 -0.24506,-0.77996c-0.06763,-0.09381 -0.06763,-0.22037 0,-0.31418c0.12803,-0.21993 0.2914,-0.15316 0.42258,-0.11939c0.11499,0.03028 0.21785,0.09529 0.29455,0.18615c0.13431,0.15552 0.21757,0.23721 0.43593,0.17908c0.29455,-0.07855 0.53647,-0.34167 0.864,-0.28434c0.24349,0.04477 0.21364,0.24035 0.17359,0.4375c-0.0542,0.26941 -0.11939,0.60087 -0.36288,0.76268c-0.26851,0.16088 -0.58146,0.23161 -0.89306,0.20186z" fill="#74b140" fill-rule="evenodd"/><path d="M242.64867,189.96325c-0.04088,-0.01113 -0.07325,-0.04236 -0.08586,-0.08281c-0.05969,-0.28591 -0.40058,-0.40922 -0.34246,-0.74461c0.04948,-0.29298 0.31418,-0.41786 0.58359,-0.37152c0.03553,0.0054 0.06548,0.02936 0.07855,0.06284c0.12567,-0.05105 0.24742,-0.19794 0.32596,-0.25999c0.0922,-0.07576 0.19921,-0.13141 0.31418,-0.16338c0.23956,-0.06362 0.49719,-0.02278 0.73283,0.03613c0.16887,0.04241 0.39666,0.0919 0.4375,0.29298c0.03142,0.16495 -0.10996,0.33146 -0.25292,0.37388c-0.14295,0.04241 -0.28591,-0.00707 -0.42179,-0.04399c-0.0919,-0.02278 -0.13353,-0.05184 -0.227,0c-0.11939,0.06912 -0.07305,0.10368 -0.07305,0.22621c0.00393,0.24271 -0.03849,0.50269 -0.24899,0.65507c-0.12567,0.09033 -0.32754,0.12724 -0.44378,0c-0.05287,-0.05756 -0.07376,-0.13759 -0.05577,-0.21364l-0.00628,0.00707c-0.05734,0.06991 -0.1351,0.13431 -0.19872,0.19794c-0.03138,0.02847 -0.07512,0.03896 -0.116,0.02782z" fill="#74b140" fill-rule="evenodd"/><path d="M252.47607,209.14063c-0.30319,1.39262 -1.55992,2.21892 -2.26683,3.38454c-0.19525,0.30862 -0.33136,0.65089 -0.40137,1.00931c-0.07383,0.42415 0.03142,0.82159 0.09583,1.23788c0.07933,0.5184 0.02435,1.16169 -0.50741,1.42089c-0.13431,0.06598 -0.28905,0.08797 -0.40137,0.20893c-0.11232,0.12096 -0.12881,0.30004 -0.14217,0.45714c-0.02199,0.25999 -0.02671,0.50976 -0.12017,0.75797c-0.20422,0.54511 -0.60166,1.01717 -0.9559,1.47116c-0.3189,0.40922 -0.56317,0.9559 -1.00774,1.24495c-0.28512,0.18694 -0.67235,0.20815 -1.00303,0.23564c-0.29376,0.02356 -0.70456,0.08483 -0.98418,-0.03927c-0.18615,-0.08247 -0.28512,-0.35581 -0.36367,-0.52626c-0.11767,-0.25656 -0.21306,-0.52276 -0.28512,-0.79567c-0.17516,-0.63701 -0.33853,-1.26694 -0.5294,-1.90552c-0.19087,-0.63858 -0.32518,-1.30072 -0.22857,-1.96757c0.0542,-0.37545 0.15866,-0.74304 0.12175,-1.12556c-0.03214,-0.32163 -0.13979,-0.63112 -0.31418,-0.90328c-0.15631,-0.24349 -0.42493,-0.41943 -0.54275,-0.68413c-0.11782,-0.2647 -0.01649,-0.5239 0.07855,-0.77682c0.06048,-0.15474 0.13588,-0.34403 0.07855,-0.51055c-0.06284,-0.18301 -0.2592,-0.17908 -0.41237,-0.23564c-0.20108,-0.07383 -0.35581,-0.21757 -0.52154,-0.34796c-0.12646,-0.09975 -0.28041,-0.22621 -0.45478,-0.18537c-0.11939,0.02828 -0.21364,0.1296 -0.31418,0.19951c-0.21993,0.15316 -0.46028,0.16495 -0.71948,0.14767c-0.20108,-0.01414 -0.39509,-0.03377 -0.58909,0.03613c-0.12881,0.04634 -0.24742,0.1186 -0.37152,0.17594c-0.205,0.09347 -0.42258,0.15631 -0.64722,0.09347c-0.25684,-0.07148 -0.45399,-0.26863 -0.63386,-0.45399c-0.23564,-0.24271 -0.48541,-0.4807 -0.70141,-0.7399c-0.19715,-0.23564 -0.19008,-0.47049 -0.26863,-0.7509c-0.07462,-0.25527 -0.31418,-0.34324 -0.47127,-0.53804c-0.12942,-0.15144 -0.1385,-0.37174 -0.02199,-0.53333c0.07933,-0.12489 0.19008,-0.21914 0.19636,-0.37623c0.00325,-0.16788 -0.09284,-0.32187 -0.24506,-0.39273c-0.03766,-0.02248 -0.06088,-0.06296 -0.06127,-0.10682c-0.02333,-0.44241 0.13728,-0.87479 0.44378,-1.19468c0.08719,-0.08876 0.19558,-0.15316 0.28119,-0.24114c0.1186,-0.12175 0.09425,-0.23642 0.1186,-0.38252c0.02391,-0.14768 0.13689,-0.26504 0.28355,-0.29455c0.17987,-0.05027 0.35817,-0.02121 0.48227,-0.18851c0.09347,-0.12724 0.12332,-0.30004 0.15709,-0.45164c0.06755,-0.31418 0.13824,-0.62444 0.38173,-0.85536c0.6048,-0.5726 1.4963,-0.33696 2.2362,-0.3888c0.28125,-0.02348 0.5542,-0.10705 0.80038,-0.24506c0.15238,-0.07855 0.31732,-0.16809 0.49405,-0.16809c0.37623,-0.00785 0.4752,0.31575 0.62444,0.58909c0.12724,0.23407 0.33225,0.26706 0.56789,0.3456c0.16062,0.05297 0.31002,0.13527 0.44064,0.24271c0.17673,0.14217 0.35346,0.36131 0.58438,0.41158c0.11703,0.02513 0.33068,-0.01257 0.40215,-0.12803c-0.08561,-0.21522 0.09268,-0.43986 0.32361,-0.46421c0.20972,-0.02356 0.43436,0.07619 0.62837,0.13353l0.69984,0.20579c0.35581,0.10525 0.76346,0.18301 1.02502,0.44378c0.26156,0.26077 0.47991,0.58202 0.7022,0.87657c0.24603,0.32001 0.47113,0.65558 0.67392,1.0046c0.19165,0.33932 0.32518,0.70298 0.50583,1.04623c0.1893,0.35974 0.50191,0.57888 0.74383,0.89306c0.18851,0.24428 0.30397,0.65821 0.62837,0.75482c0.28826,0.08483 0.60794,-0.11939 0.864,-0.22071c0.24271,-0.09583 0.49484,-0.15709 0.74618,-0.05577c0.05783,0.02343 0.09035,0.08515 0.07697,0.1461z" fill="#74b140" fill-rule="evenodd"/><path d="M252.22551,215.69606c-0.05952,0.25444 -0.15443,0.49927 -0.28198,0.72733c-0.14531,0.28434 -0.32596,0.52233 -0.39823,0.84122c-0.0542,0.23878 -0.08954,0.48777 -0.22464,0.69827c-0.16652,0.25842 -0.67314,0.52783 -0.83023,0.10132c-0.1351,-0.37152 -0.07069,-0.84515 0.20736,-1.12556c-0.09821,-0.35945 -0.02423,-0.74413 0.20029,-1.04152c0.15474,-0.20029 0.36916,-0.27727 0.56003,-0.44771c0.19087,-0.17044 0.30633,-0.40608 0.41943,-0.62837c0.02875,-0.0473 0.08534,-0.06984 0.13874,-0.05526c0.05339,0.01458 0.09068,0.06275 0.0914,0.1181c-0.01492,0.28198 0.17044,0.51683 0.11782,0.81216z" fill="#74b140" fill-rule="evenodd"/><path d="M238.68893,197.76957c0.02029,-0.05411 0.07878,-0.08352 0.13431,-0.06755c0.05552,-0.01231 0.11335,-0.00933 0.1673,0.00864c0.03773,0.0113 0.06725,0.04081 0.07855,0.07855c0.0954,0.04027 0.1807,0.10116 0.24978,0.1783c0.13431,0.15631 0.13824,0.37623 0.16809,0.57103c0.02356,0.15159 0.05498,0.2969 -0.11468,0.36367c-0.24343,0.08715 -0.49581,0.14695 -0.75247,0.1783c-0.15159,0.02042 -0.30947,-0.00393 -0.36838,-0.17359c-0.05891,-0.16966 0.05184,-0.29769 0.16102,-0.4053c0.06144,-0.05267 0.10733,-0.12111 0.13274,-0.19794c0.00283,-0.07571 0.001,-0.15152 -0.0055,-0.227c0.00356,-0.08436 0.03078,-0.16601 0.07855,-0.23564c0.02012,-0.027 0.04391,-0.05106 0.07069,-0.07148z" fill="#74b140" fill-rule="evenodd"/><path d="M239.69589,197.55279c-0.09327,-0.21581 -0.11528,-0.45574 -0.06284,-0.68492c0.02906,-0.13353 0.09661,-0.22778 0.24035,-0.23564c0.27884,-0.01571 0.33539,0.06833 0.443,0.33932c0.11389,0.28748 0.36367,0.48698 0.47677,0.77917c0.05812,0.14111 0.08156,0.2941 0.06833,0.44614c-0.00785,0.07697 -0.03456,0.14295 -0.04948,0.2215c-0.02749,0.13903 0.00628,0.25449 0.02042,0.39273c0.02828,0.26706 -0.11311,0.32675 -0.33775,0.41158c-0.19165,0.07069 -0.61815,0.21443 -0.77053,-0.00785c-0.13667,-0.20579 0.06284,-0.60009 0.15709,-0.78546c0.11153,-0.2105 0.18458,-0.3566 0.03299,-0.56317c-0.0845,-0.0958 -0.15776,-0.20095 -0.21836,-0.3134z" fill="#74b140" fill-rule="evenodd"/><path d="M259.50984,209.77609c0.04816,0.12494 0.06515,0.25974 0.04948,0.39273c0.00701,0.13597 -0.00222,0.27229 -0.02749,0.40608c-0.05498,0.21836 -0.30319,0.32518 -0.47127,0.13981c-0.08797,-0.09661 -0.0974,-0.22621 -0.0974,-0.35031c-0.0055,-0.18537 0,-0.37152 0,-0.55767c0.00033,-0.02003 0.00545,-0.03969 0.01492,-0.05734c0.00227,-0.02703 0.01362,-0.0525 0.0322,-0.07226c0.14924,-0.16652 0.40687,-0.08954 0.49955,0.09897z" fill="#74b140" fill-rule="evenodd"/><path d="M263.67904,211.42081c-0.04634,0.12096 -0.08876,0.23485 -0.1406,0.3621c-0.05184,0.12724 -0.10368,0.25449 -0.15709,0.38016c-0.09268,-0.14138 -0.18458,-0.28276 -0.27805,-0.42415l-0.36759,-0.55689c-0.11232,-0.16966 -0.21993,-0.36052 -0.42022,-0.43514c-0.1296,-0.00157 -0.17516,-0.20736 -0.0322,-0.24114h0.00943c0.01062,-0.00375 0.02174,-0.00587 0.03299,-0.00628c0.31183,-0.05263 0.54275,0.13196 0.74776,0.3566c0.19028,0.2003 0.39251,0.38889 0.60559,0.56474z" fill="#74b140" fill-rule="evenodd"/><path d="M249.09467,190.7727c0.30554,-0.36288 0.62837,-0.7132 0.94255,-1.06979l0.47127,-0.53411c0.1241,-0.14217 0.24114,-0.30554 0.39823,-0.41629c0.20972,-0.14688 0.5129,-0.16259 0.62837,0.10132c0.11546,0.26391 -0.05184,0.51683 -0.26391,0.66528c-0.36916,0.25842 -1.37062,1.14834 -0.95119,1.62668c0.15159,0.1728 0,0.65821 -0.09033,0.69042c-0.06755,0.14374 -0.43514,0.10839 -0.42336,0.07855c-0.25056,-0.06048 -0.27962,-0.06676 -0.47127,-0.25135c-0.24271,-0.23328 -0.48463,-0.59066 -0.24035,-0.89071z" fill="#74b140" fill-rule="evenodd"/><path d="M265.06852,203.78381c-0.00052,0.16285 -0.00262,0.3257 -0.00628,0.48855c0,0.03535 0,0.07069 0,0.10525c-0.00393,0.13981 -0.00943,0.27805 -0.01571,0.41708c-0.00314,0.06676 -0.01021,0.13353 -0.01021,0.19951c-0.00471,0.09268 -0.011,0.18537 -0.01728,0.27727c-0.00864,0.12332 -0.01728,0.23956 -0.02749,0.35895c-0.0055,0.01964 -0.0055,0.03849 -0.0055,0.05812c-0.01676,0.1927 -0.03613,0.38435 -0.05812,0.57495c-0.01623,0.14662 -0.0343,0.29271 -0.0542,0.43829c-0.02723,0.19689 -0.05681,0.39325 -0.08876,0.58909c-0.00471,0.0322 -0.01021,0.06441 -0.01571,0.09661c-0.02513,0.14557 -0.05132,0.29062 -0.07855,0.43514c-0.01178,0.06127 -0.02278,0.12253 -0.03535,0.18301c-0.01492,0.07619 -0.03063,0.15002 -0.04634,0.22857c-0.02513,0.12096 -0.05184,0.24192 -0.07855,0.3621c-0.01257,0.05498 -0.02592,0.10996 -0.03927,0.16495c-0.02671,0.10682 -0.05184,0.2105 -0.07855,0.31418l-0.03299,0.13353c-0.0775,0.299 -0.16154,0.59564 -0.25213,0.88992c-0.04817,0.15709 -0.09844,0.31418 -0.15081,0.47127v0.00628c-0.05289,0.15709 -0.10682,0.31418 -0.1618,0.47127c-0.23943,-0.30056 -0.43609,-0.63282 -0.58438,-0.98732c-0.14595,-0.36082 -0.2452,-0.7388 -0.29533,-1.12477c-0.05655,-0.38959 -0.10054,-0.78232 -0.28198,-1.13263c-0.15081,0.12175 -0.34717,0.19087 -0.49641,0.01492c-0.10839,-0.12724 -0.14767,-0.31732 -0.21993,-0.46656c-0.08859,-0.18131 -0.1899,-0.35612 -0.30319,-0.52311c-0.12803,-0.18851 -0.26156,-0.44457 -0.51526,-0.41315c-0.14688,0.01807 -0.24506,0.07226 -0.39823,0.02199c-0.10141,-0.03398 -0.19141,-0.09543 -0.25999,-0.17751c-0.07842,0.28605 -0.22628,0.5483 -0.43043,0.76346c-0.17202,0.16966 -0.38252,0.27412 -0.5129,0.48384c-0.10387,0.18249 -0.1736,0.38238 -0.20579,0.58988c-0.13274,0.69513 -0.09033,1.61804 -0.83965,1.977c-0.05901,0.03275 -0.13334,0.01339 -0.16887,-0.04399c-0.31418,-0.59302 -0.62837,-1.18918 -0.84515,-1.8254c-0.17044,-0.49562 -0.18851,-1.08 -0.39273,-1.57091c-0.01335,0.07069 -0.02671,0.14217 -0.03927,0.21286c-0.01092,0.04239 -0.04402,0.07548 -0.0864,0.0864c-0.2702,0.03692 -0.43986,-0.11703 -0.58438,-0.33068c-0.20108,-0.29769 -0.37466,-0.6158 -0.5561,-0.92998l-0.01964,0.00393c-0.40608,0.0432 -0.81216,0.09033 -1.21903,0.13039c-0.2592,0.02435 -0.51447,0.0322 -0.73048,-0.13274c-0.1296,-0.09583 -0.21993,-0.23956 -0.36524,-0.30947c-0.04636,-0.02169 -0.09514,-0.03778 -0.14531,-0.04791c0.28591,0.39116 0.37152,1.04937 0.87893,1.15069c0.06546,0.01834 0.10398,0.08593 0.0864,0.15159c-0.58438,1.45231 -2.17729,1.87881 -3.56283,2.18121c-0.03725,0.00962 -0.07685,0.00166 -0.10748,-0.02162c-0.03063,-0.02328 -0.04891,-0.0593 -0.04961,-0.09777c-0.05734,-0.61658 -0.72105,-0.98025 -0.97789,-1.51043c-0.15552,-0.31968 -0.23956,-0.66293 -0.41472,-0.97711c-0.14452,-0.25763 -0.50426,-0.88207 -0.86793,-0.81688c-0.06543,0.01583 -0.13187,-0.02203 -0.15159,-0.0864c-0.08954,-0.34246 -0.54746,-0.54511 -0.41001,-0.95197c0.06912,-0.20736 0.27491,-0.35503 0.39273,-0.53411c0.12961,-0.20097 0.21304,-0.42819 0.24428,-0.66528c-0.46656,-0.01257 -0.93312,-0.02356 -1.39968,-0.03692c-0.32832,-0.00628 -0.59616,-0.05655 -0.72105,-0.39273c-0.05263,-0.14217 -0.05577,-0.30004 -0.10996,-0.44143c-0.0432,-0.11389 -0.20815,-0.38173 -0.34796,-0.1461c-0.04399,0.06755 -0.00785,0.22935 0,0.30319c0.02356,0.21914 0.02199,0.51919 -0.205,0.64407c-0.26627,0.14688 -0.45714,-0.13981 -0.53882,-0.34953c-0.08169,-0.20972 -0.10839,-0.44143 -0.20579,-0.64486c-0.10368,-0.216 -0.29376,-0.34403 -0.48149,-0.47991l-0.61658,-0.44614c-0.0377,-0.02749 -0.24663,-0.21757 -0.28669,-0.20422c-0.15316,0.05027 0.01649,0.18772 0.06205,0.24114c0.29948,0.34189 0.66813,0.6163 1.08157,0.80509c0.04157,0.02582 0.06423,0.07353 0.05797,0.12206c-0.00626,0.04853 -0.04028,0.08894 -0.08703,0.10337c-0.19636,0.03692 -0.24114,0.2914 -0.31418,0.4485c-0.0602,0.14114 -0.16469,0.25887 -0.29769,0.33539c-0.28175,0.15088 -0.62951,0.09565 -0.85065,-0.1351c-0.03373,-0.03578 -0.04333,-0.08803 -0.02451,-0.13346c0.01882,-0.04543 0.06254,-0.07559 0.1117,-0.07704c0.08234,-0.00206 0.16422,-0.01285 0.24428,-0.0322c0.0772,-0.0143 0.14573,-0.05829 0.19087,-0.12253l-0.06598,-0.20265c-0.06912,-0.05969 -0.24035,-0.05027 -0.32989,-0.10761c-0.17673,-0.11468 -0.26627,-0.31575 -0.34482,-0.50191c-0.04268,-0.12766 -0.10844,-0.2464 -0.19401,-0.35031c-0.05224,-0.0621 -0.11999,-0.10925 -0.19636,-0.13667c-0.1406,-0.0377 -0.17908,0.06127 -0.25763,0.15081c-0.10761,0.12096 -0.22857,0.23564 -0.4053,0.15709c-0.16102,-0.07226 -0.23014,-0.27098 -0.24506,-0.43436c-0.00628,-0.06676 0.02042,-0.38566 -0.04241,-0.41943c-0.04556,-0.02356 -0.06519,0.22857 -0.06519,0.25449c0,0.14767 0.00864,0.32125 -0.07855,0.44928c-0.03414,0.05229 -0.08348,0.09286 -0.14138,0.11625c-0.02904,0.01037 -0.05951,0.0162 -0.09033,0.01728l0.07855,0.0432c0.037,0.02272 0.05955,0.06302 0.05955,0.10643c0,0.04341 -0.02255,0.08371 -0.05955,0.10643c-0.19213,0.13559 -0.36724,0.29382 -0.52154,0.47127c-0.14767,0.1838 -0.16966,0.37702 -0.2537,0.58517c-0.1296,0.31026 -0.61815,0.40765 -0.91506,0.41158c-0.36288,0.00785 -0.64565,-0.21993 -0.77839,-0.54982c-0.14924,-0.37074 -0.06519,-0.77053 0.03849,-1.14363h-0.06991c-0.15709,-0.00628 -0.15709,-0.25292 0,-0.24663c0.26261,0.01335 0.5259,-0.00113 0.78546,-0.0432c0.20972,-0.03535 0.48541,-0.0754 0.64722,-0.22307c0.25213,-0.22778 0.01414,-0.4375 -0.15709,-0.60559l-0.52311,-0.51526c-0.03373,-0.03578 -0.04333,-0.08803 -0.02451,-0.13346c0.01882,-0.04543 0.06254,-0.07559 0.1117,-0.07704c0.33225,0 0.67549,-0.00628 0.99439,-0.11075c0.38016,-0.1241 0.55925,-0.38095 0.72105,-0.73048c0.24349,-0.52861 0.7509,-0.86793 1.32428,-0.70691c0.03368,-0.01289 0.07167,-0.0069 0.09975,0.01571c0.14767,0.10761 0.28355,0.18537 0.44928,0.06755c0.05734,-0.04163 0.09897,-0.10368 0.16102,-0.14374c0.1432,-0.08222 0.30277,-0.13184 0.46735,-0.14531c0.19008,-0.02513 0.39194,-0.02356 0.57417,-0.08797c0.3079,-0.10839 0.36445,-0.35895 0.31418,-0.65036c-0.06519,-0.38173 0.17044,-0.62915 0.53647,-0.69592c0.2325,-0.0432 0.46735,-0.02356 0.69356,-0.10211c0.17984,-0.06576 0.3414,-0.17347 0.47127,-0.31418c-0.39911,-0.09186 -0.81772,-0.04245 -1.18447,0.13981c-0.12332,0.06205 -0.23642,0.14374 -0.37859,0.08561c-0.11975,-0.06139 -0.21322,-0.16407 -0.26313,-0.28905c-0.11782,-0.24978 -0.08483,-0.54589 0.01414,-0.79567c0.05394,-0.13665 0.1275,-0.26471 0.21836,-0.38016c0.10211,-0.13196 0.26077,-0.28041 0.29219,-0.4375c0.03142,-0.15709 -0.09425,-0.32439 -0.26234,-0.23564c-0.08756,0.05733 -0.15617,0.13933 -0.19715,0.23564c-0.06715,0.14918 -0.14594,0.29284 -0.23564,0.42965c-0.11232,0.15238 -0.25606,0.28355 -0.35267,0.44693c-0.13274,0.22386 -0.11311,0.40451 0.01021,0.62365c0.16966,0.3024 0.02513,0.51919 -0.02592,0.83808c-0.05027,0.28826 -0.11075,0.56946 -0.39273,0.71241c-0.21522,0.10918 -0.46263,0.05812 -0.57103,-0.1673c-0.06991,-0.14688 -0.06598,-0.32047 -0.10682,-0.47756c-0.03547,-0.13705 -0.08826,-0.26902 -0.15709,-0.39273c-0.21522,0.27098 -0.36681,0.67 -0.76504,0.65664c-0.432,-0.01414 -0.69042,-0.54982 -0.77368,-0.91192c-0.09975,-0.43279 0.10918,-0.72655 0.47991,-0.92448c0.47049,-0.25135 0.79096,-0.57417 1.12163,-0.98968c0.36577,-0.44803 0.70665,-0.91583 1.02109,-1.40126c0.22621,-0.3566 0.50034,-0.67078 0.96376,-0.62837c0.49798,0.04477 0.9559,0.3833 1.42718,0.53018c0.40608,0.12567 0.89621,0.16259 1.24416,0.42886c0.12646,0.09975 0.27962,0.24428 0.22071,0.41394c-0.05506,0.13427 -0.16434,0.23898 -0.30083,0.28826c-0.3833,0.15788 -0.72341,-0.05577 -1.09021,-0.13431c0.14569,0.345 0.46119,0.58869 0.8318,0.6425c0.11238,0.01758 0.22711,0.01305 0.33775,-0.01335c0.18223,-0.04634 0.24035,-0.19794 0.31418,-0.35503l0.35738,-0.7509c0.06048,-0.12567 0.27491,-0.03456 0.22543,0.09504c-0.0047,0.00945 -0.0089,0.01916 -0.01257,0.02906v0.0055c-0.0377,0.10761 0.04399,0.15866 0.24663,0.15238c0.01492,-0.02435 0.03063,-0.0487 0.04634,-0.07305c0.0281,-0.05651 0.04869,-0.11645 0.06127,-0.1783c0.02681,-0.09132 0.06705,-0.17814 0.11939,-0.25763c0.11161,-0.14372 0.2633,-0.25114 0.43593,-0.30868c0.51683,-0.19951 1.11378,-0.26313 1.6636,-0.34874c0.00471,-0.23642 0.20815,-0.38644 0.45399,-0.3778c0.18284,0.02087 0.36294,0.06116 0.53725,0.12017l0.49798,0.12096c-0.16338,-0.31497 -0.32911,-0.62994 -0.47127,-0.95197c-0.09975,-0.22621 -0.13903,-0.52704 0.10054,-0.68413c0.26391,-0.17437 0.51369,0.07619 0.62837,0.2969c0.09347,0.17987 0.1728,0.32911 0.34717,0.44535c0.09116,0.05895 0.18768,0.10918 0.28826,0.15002c-0.02356,-0.26077 0.03063,-0.54432 0.27805,-0.61658c-0.02755,-0.10231 -0.0379,-0.20848 -0.03063,-0.31418c0.00085,-0.04378 0.02457,-0.08391 0.06251,-0.10578c0.03794,-0.02186 0.08455,-0.02226 0.12286,-0.00105c0.26548,0.15552 0.55296,0.31732 0.86008,0.30711c-0.23485,-0.23407 -0.57024,-0.42493 -0.53018,-0.79881c0.03849,-0.33068 0.33539,-0.47756 0.62837,-0.54982c-0.11389,-0.22857 -0.02671,-0.52076 0.15238,-0.71398c0.29926,-0.32361 0.76111,-0.51369 1.15933,-0.67942c0.12253,-0.05027 0.24663,-0.09897 0.36995,-0.14688c0.16023,-0.06127 0.28983,-0.12567 0.29533,-0.30476c0.00393,-0.14138 -0.02749,-0.29926 0.05105,-0.42729c0.04734,-0.09646 0.14802,-0.15501 0.25527,-0.14845c0.12672,0.10473 0.25266,0.20946 0.3778,0.31418c0.12306,0.10473 0.24506,0.20946 0.36602,0.31418l0.00864,0.00707c0.11991,0.1063 0.23878,0.21391 0.3566,0.32282l0.00864,0.00785c0.11834,0.10996 0.23538,0.22097 0.3511,0.33303c0.05105,0.05341 0.10447,0.10447 0.15709,0.15709c1.11423,1.10133 2.10553,2.32045 2.95646,3.63588c0.09425,0.14505 0.18641,0.29114 0.27648,0.43829c-0.00015,0.00183 -0.00015,0.00367 0,0.0055c0.08902,0.1461 0.17647,0.29298 0.26234,0.44064l0.00707,0.011c0.08404,0.14531 0.16966,0.29298 0.2482,0.44064l0.01021,0.01728c0.07855,0.1461 0.15709,0.29298 0.23564,0.44064l0.01335,0.02435c0.07462,0.14531 0.14767,0.29219 0.21993,0.43907l0.01571,0.0322c0.07017,0.14557 0.13876,0.2914 0.20579,0.4375c0.00628,0.01414 0.01335,0.02749 0.01964,0.04084c0.06519,0.14374 0.12881,0.28905 0.19165,0.43436l0.02199,0.05027c0.06048,0.14217 0.1186,0.28512 0.17673,0.42886l0.02435,0.06127c0.05655,0.1406 0.10996,0.28276 0.16338,0.42493c0.00864,0.02356 0.01807,0.04713 0.02671,0.07148c0.05184,0.13903 0.10054,0.27884 0.14924,0.41943l0.02906,0.08247c0.04608,0.13772 0.09111,0.2757 0.1351,0.41394c0.01021,0.03142 0.02121,0.06205 0.03063,0.09347c0.04399,0.1351 0.08247,0.27177 0.12253,0.40765c0.01021,0.03535 0.02121,0.06991 0.03063,0.10447c0.03849,0.13274 0.07383,0.26627 0.10918,0.40058c0.011,0.03927 0.02199,0.07776 0.0322,0.11782c0.03377,0.13039 0.06519,0.26156 0.09661,0.39273c0.01021,0.0432 0.02121,0.0864 0.03142,0.1296c0.02985,0.12881 0.05734,0.25763 0.08483,0.38723c0.01021,0.04713 0.02121,0.09347 0.03063,0.13981c0.02592,0.12646 0.04948,0.25292 0.07383,0.38016c0.00943,0.05027 0.01964,0.10132 0.02906,0.15238c0.02199,0.12332 0.04241,0.2482 0.06205,0.37309c0.00864,0.0542 0.01885,0.10839 0.02749,0.16259c0.01807,0.12253 0.03456,0.24585 0.05184,0.36916c0.00785,0.05734 0.01649,0.11389 0.02356,0.17123c0.01571,0.12253 0.02906,0.24506 0.04241,0.36759c0.00707,0.05891 0.01414,0.11782 0.02042,0.17673c0.01257,0.12253 0.02278,0.24585 0.03299,0.36838c0.00471,0.06048 0.011,0.12017 0.01571,0.18066c0.01021,0.12724 0.01728,0.25606 0.02513,0.38487c0.00314,0.05577 0.01021,0.11075 0.01021,0.16652c0.00707,0.13903 0.01571,0.27805 0.01571,0.41708c0.00157,0.04634 0.0055,0.09268 0.0055,0.13824c0,0.18851 0.00026,0.37492 0.00079,0.55925zM249.58637,201.17924c-0.08438,-0.10144 -0.1966,-0.17598 -0.32282,-0.21443c-0.0864,-0.0322 -0.17751,-0.05105 -0.2647,-0.08326c-0.06839,-0.0211 -0.13193,-0.05554 -0.18694,-0.10132c-0.02262,-0.01983 -0.03559,-0.04846 -0.03559,-0.07855c0,-0.03008 0.01297,-0.05871 0.03559,-0.07855c0.04163,-0.17202 0.24978,-0.45792 -0.06441,-0.50741c-0.17044,-0.02435 -0.38016,0.04791 -0.54982,0.07855c-0.17961,0.03246 -0.35895,0.06676 -0.53804,0.10289c-0.03026,-0.02877 -0.07283,-0.04064 -0.11361,-0.03166c-0.04078,0.00897 -0.07444,0.03762 -0.08982,0.07643c-0.14374,0.38802 -0.33932,0.83258 -0.37938,1.24809c-0.02592,0.27255 0.19951,0.42258 0.45321,0.3189c0.1838,-0.07462 0.32282,-0.20972 0.51997,-0.26706c0.22543,-0.06441 0.42101,-0.07069 0.60951,0.07855c0.20736,0.16416 0.57181,0.1461 0.80745,0.03927c0.23407,-0.10761 0.27255,-0.38173 0.11939,-0.58045zM251.24997,201.94901c0.02828,0.28276 0.27491,0.50505 0.50662,0.64329c0.20029,0.11939 0.4807,0.17044 0.65272,-0.04556c0.17202,-0.216 0.02199,-0.40608 -0.11546,-0.57653c-0.0542,-0.06676 -0.08404,-0.01335 -0.03849,-0.11153c0.01492,-0.02513 0.06048,-0.05184 0.07855,-0.07462c0.03609,-0.04357 0.06282,-0.0941 0.07855,-0.14845c0.03136,-0.10514 0.001,-0.21898 -0.07855,-0.29455c-0.13431,-0.1186 -0.3079,-0.12489 -0.42179,-0.28669c-0.10965,-0.17356 -0.15931,-0.3783 -0.14138,-0.58281c0.12288,-0.09939 0.16041,-0.27071 0.09033,-0.41237c-0.09975,-0.216 -0.37623,-0.2757 -0.59066,-0.216c-0.60166,0.16809 -0.6213,0.85222 -0.2969,1.2803c0.08404,0.10996 0.39587,0.33382 0.36602,0.49091c-0.02356,0.12175 -0.10132,0.19401 -0.08954,0.3346zM253.13664,204.9196h-0.02199c-0.28014,0.01519 -0.56005,-0.0337 -0.81845,-0.14295c-0.28905,-0.13431 -0.44771,-0.34639 -0.65743,-0.57103c-0.05341,-0.05734 -0.17202,-0.18458 -0.26548,-0.13196c-0.10839,0.06048 0.00943,0.24035 0.04477,0.30711c0.07685,0.14903 0.16674,0.29097 0.26863,0.42415c0.19558,0.24192 0.46028,0.45792 0.78546,0.47127c0.27255,0.011 0.5561,-0.10604 0.6645,-0.3566z" fill="#74b140" fill-rule="nonzero"/></g><path d="M202.5702,210.18003c2,-1.5 3.5,0.5 3.5,0.5l1.11945,1.53448c0.93415,0.93415 1.37849,2.48755 2.59968,2.99153c0.83236,0.34351 1.81817,-0.52445 2.42548,-1.18928c2.14211,-2.34499 3.2808,-6.05134 5.12194,-8.67069c3.45069,-4.90922 9.49115,-12.12799 16.26285,-8.90584c0.40426,0.19236 3.67838,3.50972 4.22831,4.05965c0,0 1.76777,1.76777 0,3.53553c-1.76777,1.76777 -3.53553,0 -3.53553,0c-1.02206,-1.02206 -1.71708,-2.44755 -2.98069,-3.14935c-2.65405,-1.47404 -4.60199,1.65386 -6.09953,3.14935c-2.66477,2.66112 -4.45577,5.31856 -6.38247,8.52972c-0.33351,0.55585 -2.82031,4.7398 -3.07934,4.98715c-1.6908,1.61459 -5.11679,3.05612 -7.4869,2.41522c-0.66031,-0.17855 -3.85508,-3.46323 -4.60932,-4.21747l-1.58392,-2.07002c0,0 -1.5,-2 0.5,-3.5z" fill="#71ff66" fill-rule="nonzero" stroke="none" stroke-width="0.5"/><path d="M171.83308,131.52933c0,-2.5 2.5,-2.5 2.5,-2.5h1.80225c3.91076,0 7.01422,-0.87687 9.43192,3.1583c0.56706,0.94643 0.37495,2.17724 0.65392,3.2447c0.9021,3.45172 1.42764,6.87858 2.254,10.36773c1.04028,4.3924 2.69847,8.44896 3.21637,12.98908c0.50397,4.418 -0.8266,9.16057 -1.85335,13.39004c-0.81214,3.34545 -0.13821,4.97839 -4.37923,6.78715c-1.89443,0.80796 -4.11018,-0.33833 -6.16969,-0.3313c-8.22037,-0.00902 -16.20945,-1.23171 -24.20314,1.44451c-2.46889,0.82656 -5.01554,1.40044 -7.53442,2.05913c-0.29363,0.07678 -2.72276,0.54207 -2.75245,1.6717c-0.06583,2.50482 0.94453,5.60968 1.36155,8.13391c0.63152,3.82253 1.1998,7.58797 1.66517,11.42803c7.54852,0.00435 15.18389,0.09392 22.69639,-0.4422c3.00747,-0.21462 6.00341,-1.12109 9.01125,-1.35169c7.63173,-0.5851 15.52787,-0.00852 23.18489,-0.00852h1.35169c0,0 2.5,0 2.5,2.5c0,2.5 -2.5,2.5 -2.5,2.5h-1.35169c-7.51687,0 -15.28205,-0.58688 -22.77249,-0.00852c-3.0069,0.23217 -6.00223,1.13658 -9.01125,1.35169c-7.82528,0.5594 -15.77814,0.45908 -23.63545,0.45908c0,0 -1.26178,0 -1.99252,-0.8964c-2.05381,-0.06298 -2.29444,-2.22864 -2.29444,-2.22864c-0.5506,-5.12559 -1.508,-10.10067 -2.24196,-15.23459c-0.33915,-2.37232 -1.44355,-4.80478 -0.88339,-7.13483c1.16596,-4.84997 5.19067,-4.96051 9.06249,-6.015c2.78481,-0.75844 5.37857,-2.20928 8.21789,-2.72763c7.47225,-1.36413 14.64507,-0.49103 22.12186,-0.50003c1.55954,0.00457 3.10891,0.84601 4.64381,0.56982c0.99712,-0.17942 1.8422,-5.8519 1.91794,-6.22931c1.55799,-7.76317 -0.44891,-13.444 -2.23077,-20.9798c-0.81771,-3.45826 -1.44089,-6.92253 -2.25163,-10.35815c-0.22248,-0.9428 0.16746,-2.61272 -0.78324,-2.79856c-1.45713,-0.28483 -2.96534,0.1903 -4.45004,0.1903h-1.80225c0,0 -2.5,0 -2.5,-2.5z" fill="#71ff66" fill-rule="nonzero" stroke="none" stroke-width="0.5"/><text transform="translate(187.39939,236.01543) scale(0.2644,0.2644)" font-size="40" xml:space="preserve" fill="#000000" fill-rule="nonzero" stroke="none" stroke-width="1" stroke-linecap="butt" stroke-linejoin="miter" stroke-miterlimit="10" stroke-dasharray="" stroke-dashoffset="0" font-family="Pixel" font-weight="normal" text-anchor="start" style="mix-blend-mode: normal"><tspan x="0" dy="0">Network Connected</tspan></text><text transform="translate(86.47339,259.48909) scale(0.5,0.5)" font-size="40" xml:space="preserve" fill="#000000" fill-rule="nonzero" stroke="none" stroke-width="1" stroke-linecap="butt" stroke-linejoin="miter" stroke-miterlimit="10" stroke-dasharray="" stroke-dashoffset="0" font-family="Pixel" font-weight="normal" text-anchor="start" style="mix-blend-mode: normal"><tspan x="0" dy="0">0 TO CLOSE!</tspan></text><g fill-rule="nonzero" stroke="none"><path d="M86.05524,138.65861v-7.92659l84.73686,-18.58649l1.37337,26.51308z" fill="#000000" stroke-width="0"/><text transform="translate(146.20879,131.60947) scale(0.36667,0.36488)" font-size="40" xml:space="preserve" fill="#ffffff" fill-rule="nonzero" stroke="none" stroke-width="1" stroke-linecap="butt" stroke-linejoin="miter" stroke-miterlimit="10" stroke-dasharray="" stroke-dashoffset="0" font-family="Pixel" font-weight="normal" text-anchor="start" style="mix-blend-mode: normal"><tspan x="0" dy="0">1.0</tspan></text><text transform="translate(100.23678,114.02983) rotate(-12.16299) scale(0.20972,0.20879) skewX(0.11569)" font-size="40" xml:space="preserve" fill="#000000" fill-rule="nonzero" stroke="none" stroke-width="1" stroke-linecap="butt" stroke-linejoin="miter" stroke-miterlimit="10" stroke-dasharray="" stroke-dashoffset="0" font-family="Pixel" font-weight="normal" text-anchor="start" style="mix-blend-mode: normal"><tspan x="0" dy="0">Scratch </tspan><tspan x="0" dy="46.15px">Within Scratch</tspan></text><text transform="translate(96.0067,103.949) rotate(-15.80068) scale(0.48457,0.48256) skewX(0.14716)" font-size="40" xml:space="preserve" fill="#ff9e00" fill-rule="nonzero" stroke="none" stroke-width="1" stroke-linecap="butt" stroke-linejoin="miter" stroke-miterlimit="10" stroke-dasharray="" stroke-dashoffset="0" font-family="Pixel" font-weight="normal" text-anchor="start" style="mix-blend-mode: normal"><tspan x="0" dy="0">Ss</tspan></text></g></g></g></svg>