<svg version="1.1" xmlns="http://www.w3.org/2000/svg" xmlns:xlink="http://www.w3.org/1999/xlink" width="460.87182" height="83.53465" viewBox="0,0,460.87182,83.53465"><g transform="translate(290,-119.46535)"><g data-paper-data="{&quot;isPaintingLayer&quot;:true}" fill-rule="nonzero" stroke-linecap="butt" stroke-linejoin="miter" stroke-miterlimit="10" stroke-dasharray="" stroke-dashoffset="0" style="mix-blend-mode: normal"><path d="M-290,200.5c0,-1.38071 1.11929,-2.5 2.5,-2.5c1.38071,0 2.5,1.11929 2.5,2.5c0,1.38071 -1.11929,2.5 -2.5,2.5c-1.38071,0 -2.5,-1.11929 -2.5,-2.5z" fill="#ff9400" stroke="none" stroke-width="0.5"/><g><path d="M167.76291,182.37793l-31.99736,-0.41132l0.79693,-61.99488l31.99736,0.41132z" fill="#ff9400" stroke="#000000" stroke-width="1"/><path d="M134.87347,121.70016c1.49988,0.01928 1.4806,1.51916 1.4806,1.51916l-0.00857,0.66661c-0.03948,3.07128 0.57774,5.9716 0.55092,9.00783c0,0 -0.01928,1.49988 -1.51916,1.4806c-1.49988,-0.01928 -1.4806,-1.51916 -1.4806,-1.51916c0.05322,-3.01364 -0.59028,-5.94585 -0.55092,-9.00783l0.00857,-0.66661c0,0 0.01928,-1.49988 1.51916,-1.4806z" fill="#000000" stroke="none" stroke-width="0.5"/><path d="M134.60263,168.70057c1.49988,0.01928 1.4806,1.51916 1.4806,1.51916c-0.02999,2.33315 -0.07712,5.9995 -0.10711,8.33265c0,0 -0.01928,1.49988 -1.51916,1.4806c-1.49988,-0.01928 -1.4806,-1.51916 -1.4806,-1.51916c0.02999,-2.33315 0.05998,-4.66627 0.08998,-6.99942l0.01714,-1.33323c0,0 0.01928,-1.49988 1.51916,-1.4806z" fill="#000000" stroke="none" stroke-width="0.5"/><path d="M167.59374,169.28303c1.35015,-0.65352 2.00367,0.69663 2.00367,0.69663l0.44911,1.04917c0.42577,2.33198 0.30334,4.601 0.27296,6.96492c0,0 -0.01928,1.49988 -1.51916,1.4806c-1.49988,-0.01928 -1.4806,-1.51916 -1.4806,-1.51916c0.0277,-2.15476 0.1838,-4.25586 -0.22226,-6.37588l-0.20036,-0.29262c0,0 -0.65352,-1.35015 0.69663,-2.00367z" fill="#000000" stroke="none" stroke-width="0.5"/><path d="M169.1954,122.80808c1.49988,0.01928 1.4806,1.51916 1.4806,1.51916l-0.00428,0.33331c-0.04608,3.5847 0.23625,7.09982 0.19621,10.67006c0,0 -0.01928,1.49988 -1.51916,1.4806c-1.49988,-0.01928 -1.4806,-1.51916 -1.4806,-1.51916c0.05216,-3.56401 -0.24225,-7.08818 -0.19621,-10.67006l0.00428,-0.33331c0,0 0.01928,-1.49988 1.51916,-1.4806z" fill="#000000" stroke="none" stroke-width="0.5"/><path d="M167.87628,147.62652l-31.33074,-0.40275l0.14996,-11.66571l31.33074,0.40275z" fill="#00ceff" stroke="#000000" stroke-width="1"/></g></g></g></svg>