<svg version="1.1" xmlns="http://www.w3.org/2000/svg" xmlns:xlink="http://www.w3.org/1999/xlink" width="500" height="355.93711" viewBox="0,0,500,355.93711"><g transform="translate(12.95,-10.06289)"><g data-paper-data="{&quot;isPaintingLayer&quot;:true}" fill-rule="nonzero" stroke-linejoin="miter" stroke-miterlimit="10" stroke-dasharray="" stroke-dashoffset="0" style="mix-blend-mode: normal"><path d="M78.638,10.06289h322.1541v257.955h-322.1541z" fill="#666666" stroke="none" stroke-width="1.18934" stroke-linecap="butt"/><path d="M108.1336,33.0435h256.8829v205h-256.8829z" fill="#ffffff" stroke="none" stroke-width="1.48387" stroke-linecap="butt"/><path d="M-12.95,276.096h500v89h-500z" fill="#b2b2b2" stroke="none" stroke-width="3.97719" stroke-linecap="butt"/><path d="M80,277l1,88" fill="none" stroke="#000000" stroke-width="2" stroke-linecap="round"/><path d="M442,277l5,88" fill="none" stroke="#000000" stroke-width="2" stroke-linecap="round"/><text transform="translate(453.6022,283.74436) rotate(88.44108)" font-size="22" xml:space="preserve" fill="#000000" fill-rule="nonzero" stroke="none" stroke-width="1" stroke-linecap="butt" stroke-linejoin="miter" stroke-miterlimit="10" stroke-dasharray="" stroke-dashoffset="0" font-family="Sans Serif" font-weight="400" text-anchor="start" style="mix-blend-mode: normal"><tspan x="0" dy="0">ROMS</tspan></text><text transform="translate(0.78292,294.21772) scale(0.89146,0.78305)" font-size="22" xml:space="preserve" fill="#000000" fill-rule="nonzero" stroke="none" stroke-width="1" stroke-linecap="butt" stroke-linejoin="miter" stroke-miterlimit="10" stroke-dasharray="" stroke-dashoffset="0" font-family="Sans Serif" font-weight="400" text-anchor="start" style="mix-blend-mode: normal"><tspan x="0" dy="0">Scratch</tspan><tspan x="0" dy="24.86px"> ROMS</tspan></text><path d="M-5.118,317.00579l86.1857,2.005" fill="none" stroke="#000000" stroke-width="2" stroke-linecap="round"/><text transform="translate(2.25,334.60123) scale(0.59009,0.80291)" font-size="22" xml:space="preserve" fill="#000000" fill-rule="nonzero" stroke="none" stroke-width="1" stroke-linecap="butt" stroke-linejoin="miter" stroke-miterlimit="10" stroke-dasharray="" stroke-dashoffset="0" font-family="Handwriting" font-weight="400" text-anchor="start" style="mix-blend-mode: normal"><tspan x="0" dy="0">SB3 - 32-bit</tspan><tspan x="0" dy="24.86px">Carts -----&gt;</tspan></text><text transform="translate(1.46119,58.65495) scale(0.65559,0.68469)" font-size="22" xml:space="preserve" fill="#000000" fill-rule="nonzero" stroke="none" stroke-width="1" stroke-linecap="butt" stroke-linejoin="miter" stroke-miterlimit="10" stroke-dasharray="" stroke-dashoffset="0" font-family="Sans Serif" font-weight="400" text-anchor="start" style="mix-blend-mode: normal"><tspan x="0" dy="0">32-bit</tspan><tspan x="0" dy="24.86px">-------</tspan><tspan x="0" dy="24.86px">RAM</tspan><tspan x="0" dy="24.86px">Infinite</tspan><tspan x="0" dy="24.86px">-------</tspan><tspan x="0" dy="24.86px">Network</tspan><tspan x="0" dy="24.86px">Connected</tspan></text><text transform="translate(108.062,130.87119) scale(1.03086,0.59303)" font-size="22" xml:space="preserve" fill="#000000" fill-rule="nonzero" stroke="none" stroke-width="1" stroke-linecap="butt" stroke-linejoin="miter" stroke-miterlimit="10" stroke-dasharray="" stroke-dashoffset="0" font-family="Sans Serif" font-weight="400" text-anchor="start" style="mix-blend-mode: normal"><tspan x="0" dy="0">----------------------------------</tspan><tspan x="0" dy="24.86px">----------------------------------</tspan><tspan x="0" dy="24.86px">----------------------------------</tspan><tspan x="0" dy="24.86px">----------------------------------</tspan><tspan x="0" dy="24.86px">----------------------------------</tspan><tspan x="0" dy="24.86px">----------------------------------</tspan><tspan x="0" dy="24.86px">----------------------------------</tspan><tspan x="0" dy="24.86px">----------------------------------</tspan></text><text transform="translate(109.35475,39.70253) scale(1.03086,0.45858)" font-size="22" xml:space="preserve" fill="#000000" fill-rule="nonzero" stroke="none" stroke-width="1" stroke-linecap="butt" stroke-linejoin="miter" stroke-miterlimit="10" stroke-dasharray="" stroke-dashoffset="0" font-family="Sans Serif" font-weight="400" text-anchor="start" style="mix-blend-mode: normal"><tspan x="0" dy="0">----------------------------------</tspan><tspan x="0" dy="24.86px">----------------------------------</tspan><tspan x="0" dy="24.86px">----------------------------------</tspan><tspan x="0" dy="24.86px">----------------------------------</tspan><tspan x="0" dy="24.86px">----------------------------------</tspan><tspan x="0" dy="24.86px">----------------------------------</tspan><tspan x="0" dy="24.86px">----------------------------------</tspan><tspan x="0" dy="24.86px">----------------------------------</tspan></text><path d="" fill="#000000" stroke="none" stroke-width="0.5" stroke-linecap="butt"/><path d="" fill="#000000" stroke="none" stroke-width="0.5" stroke-linecap="butt"/><path d="M69.71667,165.61431c0,6.75603 0.04396,13.4301 0.3285,20.15275c0.15742,3.71919 -0.49632,8.05712 -0.03529,11.70709c0.00092,0.00732 0.00186,0.01463 0.00281,0.02194c1.0373,1.029 1.0373,3.05342 1.0373,3.05342c0,0.3794 -0.00084,0.759 -0.0023,1.13877c0.43905,4.04737 0.17651,8.66283 0.33253,12.75109c0.06194,1.62294 0.57774,3.26608 0.33334,4.85211c-0.00933,0.06057 -0.01896,0.12098 -0.02888,0.18127h0.03198v4.3669c0,1.66197 -0.76539,3.06373 -1.81106,3.49915c0.00014,0.04859 0.00021,0.09712 0.00021,0.14561c0,0 0,0.79399 -0.25478,1.64021c0.03863,0.82342 0.06204,1.64922 0.06564,2.47841c0,0 0,3.63908 -2.5,3.63908c-2.5,0 -2.5,-3.63908 -2.5,-3.63908c0.0283,-5.19312 -0.92078,-10.40611 -1.31804,-15.6101c-0.46158,-6.04645 -0.75046,-12.14437 -0.89718,-18.24218c-0.11812,-0.60733 -0.11811,-1.08293 -0.11811,-1.08293l0.00102,-1.07436c0.0239,-1.21742 0.02704,-2.46737 0.01848,-3.73984c-0.00265,-0.27707 -0.00502,-0.55407 -0.00712,-0.83105c-0.07551,-7.33111 -0.46943,-15.32808 0.5125,-22.11869l0.14255,-7.26242c0.01552,-0.91929 0.26526,-1.75404 0.66563,-2.38255c0.00068,-0.04134 0.00171,-0.08316 0.0031,-0.12545c0.11892,-3.63496 2.61608,-3.46188 2.61608,-3.46188c0.93632,0.06504 1.87186,0.11964 2.80695,0.16575c0.4252,-0.17344 0.75969,-0.16976 0.75969,-0.16976l4.34038,0.04772c1.68538,0.01884 3.41378,-0.49462 5.05613,0.05649c0.01857,0.00623 0.03713,0.01252 0.05568,0.01887l0.00056,-0.01547l4.97747,0.38133c0.04948,0.00328 0.09857,0.00866 0.14726,0.01607c-0.09896,-3.45636 -0.0665,-6.93508 -0.0665,-10.33088c0,0 0,-2.91127 2,-2.91127c0.33845,0 0.61962,0.08338 0.85322,0.2219c0.57595,-1.12903 1.63956,-1.12903 1.63956,-1.12903h0.7442l0.07845,-1.02778c0.12362,-1.84167 1.19037,-3.28085 2.48804,-3.28085c1.38071,0 2.5,1.62928 2.5,3.63908v0.92746c0.32442,0.08246 0.56974,0.18977 0.69084,0.32916c1.37253,1.57974 1.37787,5.807 1.6931,8.11455c0.81014,5.93031 0.66049,11.74257 0.66049,17.79533c0,0 0,0.96568 -0.38208,1.78469c-0.35492,2.03372 -1.92951,2.03372 -1.92951,2.03372l-1.84083,-0.02926c-1.34971,-0.28557 -2.72878,-0.20641 -4.03025,-0.46593c-0.31368,0.20634 -0.66184,0.3212 -1.02844,0.3212c-1.13504,0 -2.09341,-1.10106 -2.39852,-2.60944c-0.15668,-0.23015 -0.30939,-0.4826 -0.45779,-0.75962c-0.63309,-1.18186 -0.45446,-2.92446 -0.63719,-4.39935c-0.04589,-0.37039 -0.08857,-0.74207 -0.12826,-1.11491c-0.22553,0.09729 -0.46436,0.14952 -0.71157,0.14952c-0.00716,0 -0.01431,-0.00004 -0.02146,-0.00013l-3.00283,-0.0321c-3.83366,-0.04098 -7.65172,-0.08248 -11.47571,-0.25315zM88.88334,147.90411c0.12471,0 0.24321,0.00905 0.3558,0.02627c0.00172,-0.02817 0.00342,-0.05635 0.00513,-0.08453h-0.33828c0,0 -0.20764,0 -0.48911,-0.0974c0.00026,0.06722 0.00055,0.13444 0.00084,0.20165c0.14468,-0.02996 0.29964,-0.046 0.46563,-0.046z" fill="#000000" stroke="none" stroke-width="0.5" stroke-linecap="butt"/><g><path d="M8.05,181.525c0,-1.933 1.56701,-3.5 3.5,-3.5c1.933,0 3.5,1.567 3.5,3.5c0,1.933 -1.567,3.5 -3.5,3.5c-1.93299,0 -3.5,-1.567 -3.5,-3.5z" fill="#bbbbbb" stroke="none" stroke-width="0.5" stroke-linecap="butt"/><path d="M0.17073,257.01498v-35.55844h77.50086v35.55844z" fill="#cdcdcd" stroke="none" stroke-width="0" stroke-linecap="butt"/><text transform="translate(2.28211,228.31332) scale(0.13492,0.13492)" font-size="40" xml:space="preserve" fill="#000000" fill-rule="nonzero" stroke="none" stroke-width="1" stroke-linecap="butt" stroke-linejoin="miter" stroke-miterlimit="10" stroke-dasharray="" stroke-dashoffset="0" font-family="Sans Serif" font-weight="normal" text-anchor="start" style="mix-blend-mode: normal"><tspan x="0" dy="0">Scratch Network 1.0</tspan><tspan x="0" dy="46.150000000000006px"> </tspan><tspan x="0" dy="46.150000000000006px"> </tspan><tspan x="0" dy="46.150000000000006px"> </tspan></text><path d="M0.10093,250.60904l77.27598,0.31159" fill="none" stroke="#000000" stroke-width="0.5" stroke-linecap="round"/><path d="M9.21667,223.34153v-42.33334h5v42.33334z" fill="#bbbbbb" stroke="#e7e7e7" stroke-width="0.5" stroke-linecap="butt"/></g></g></g></svg>