<svg version="1.1" xmlns="http://www.w3.org/2000/svg" xmlns:xlink="http://www.w3.org/1999/xlink" width="514.33334" height="140.34118" viewBox="0,0,514.33334,140.34118"><g transform="translate(290,-80.33334)"><g data-paper-data="{&quot;isPaintingLayer&quot;:true}" fill-rule="nonzero" stroke-linecap="butt" stroke-linejoin="miter" stroke-miterlimit="10" stroke-dasharray="" stroke-dashoffset="0" style="mix-blend-mode: normal"><path d="M-290,200.5c0,-1.38071 1.11929,-2.5 2.5,-2.5c1.38071,0 2.5,1.11929 2.5,2.5c0,1.38071 -1.11929,2.5 -2.5,2.5c-1.38071,0 -2.5,-1.11929 -2.5,-2.5z" fill="#ff9400" stroke="none" stroke-width="0.5"/><g><g><path d="M75.83333,115.5v-32h62v32z" fill="#ff9400" stroke="#000000" stroke-width="1"/><path d="M136.08333,81.83334c0,1.5 -1.5,1.5 -1.5,1.5h-0.66667c-3.07153,0 -5.96368,0.65445 -9,0.66666c0,0 -1.5,0 -1.5,-1.5c0,-1.5 1.5,-1.5 1.5,-1.5c3.01408,0.01448 5.93777,-0.66666 9,-0.66666h0.66667c0,0 1.5,0 1.5,1.5z" fill="#000000" stroke="none" stroke-width="0.5"/><path d="M89.08333,82.16665c0,1.5 -1.5,1.5 -1.5,1.5c-2.33334,0 -6,0 -8.33334,0c0,0 -1.5,0 -1.5,-1.5c0,-1.5 1.5,-1.5 1.5,-1.5c2.33334,0 4.66666,0 7,0h1.33334c0,0 1.5,0 1.5,1.5z" fill="#000000" stroke="none" stroke-width="0.5"/><path d="M88.92497,115.16252c0.67082,1.34164 -0.67082,2.01246 -0.67082,2.01246l-1.04331,0.46256c-2.32631,0.45571 -4.59672,0.36246 -6.96084,0.36246c0,0 -1.5,0 -1.5,-1.5c0,-1.5 1.5,-1.5 1.5,-1.5c2.15494,0 4.25787,0.12908 6.3725,-0.3042l0.29002,-0.2041c0,0 1.34164,-0.67082 2.01246,0.67082z" fill="#000000" stroke="none" stroke-width="0.5"/><path d="M135.41667,116.16667c0,1.5 -1.5,1.5 -1.5,1.5h-0.33334c-3.585,0 -7.0962,0.32749 -10.66666,0.33334c0,0 -1.5,0 -1.5,-1.5c0,-1.5 1.5,-1.5 1.5,-1.5c3.56439,0.00634 7.08448,-0.33334 10.66666,-0.33334h0.33334c0,0 1.5,0 1.5,1.5z" fill="#000000" stroke="none" stroke-width="0.5"/><path d="M110.58333,115.16667v-31.33333h11.66667v31.33333z" fill="#00ceff" stroke="#000000" stroke-width="1"/></g><text transform="translate(79.05218,103.66667) scale(0.3411,0.3411)" font-size="40" xml:space="preserve" fill="#000000" fill-rule="nonzero" stroke="none" stroke-width="1" stroke-linecap="butt" stroke-linejoin="miter" stroke-miterlimit="10" stroke-dasharray="" stroke-dashoffset="0" font-family="Pixel" font-weight="normal" text-anchor="start" style="mix-blend-mode: normal"><tspan x="0" dy="0">TEST! :)</tspan></text></g><g><path d="M161.83334,218.16667v-32h62v32z" fill="#ff9400" stroke="#000000" stroke-width="1"/><path d="M222.08334,184.5c0,1.5 -1.5,1.5 -1.5,1.5h-0.66666c-3.07153,0 -5.96368,0.65445 -9,0.66666c0,0 -1.5,0 -1.5,-1.5c0,-1.5 1.5,-1.5 1.5,-1.5c3.01408,0.01449 5.93777,-0.66666 9,-0.66666h0.66666c0,0 1.5,0 1.5,1.5z" fill="#000000" stroke="none" stroke-width="0.5"/><path d="M175.08334,184.83333c0,1.5 -1.5,1.5 -1.5,1.5c-2.33334,0 -6,0 -8.33334,0c0,0 -1.5,0 -1.5,-1.5c0,-1.5 1.5,-1.5 1.5,-1.5c2.33334,0 4.66666,0 7,0h1.33334c0,0 1.5,0 1.5,1.5z" fill="#000000" stroke="none" stroke-width="0.5"/><path d="M174.92498,217.82918c0.67082,1.34164 -0.67082,2.01246 -0.67082,2.01246l-1.04331,0.46256c-2.3263,0.45571 -4.59672,0.36246 -6.96085,0.36246c0,0 -1.5,0 -1.5,-1.5c0,-1.5 1.5,-1.5 1.5,-1.5c2.15494,0 4.25787,0.12908 6.37249,-0.3042l0.29002,-0.2041c0,0 1.34164,-0.67082 2.01246,0.67082z" fill="#000000" stroke="none" stroke-width="0.5"/><path d="M221.41667,218.83332c0,1.5 -1.5,1.5 -1.5,1.5h-0.33334c-3.585,0 -7.0962,0.32749 -10.66666,0.33334c0,0 -1.5,0 -1.5,-1.5c0,-1.5 1.5,-1.5 1.5,-1.5c3.56439,0.00634 7.08449,-0.33334 10.66666,-0.33334h0.33334c0,0 1.5,0 1.5,1.5z" fill="#000000" stroke="none" stroke-width="0.5"/><path d="M196.58334,217.83332v-31.33333h11.66666v31.33333z" fill="#00ceff" stroke="#000000" stroke-width="1"/></g></g></g></svg>