<svg version="1.1" xmlns="http://www.w3.org/2000/svg" xmlns:xlink="http://www.w3.org/1999/xlink" width="76.225" height="42.62245" viewBox="0,0,76.225,42.62245"><g transform="translate(-245.8375,-222.62755)"><g data-paper-data="{&quot;isPaintingLayer&quot;:true}" fill-rule="nonzero" stroke-linecap="butt" stroke-linejoin="miter" stroke-miterlimit="10" stroke-dasharray="" stroke-dashoffset="0" style="mix-blend-mode: normal"><path d="M247.0875,264v-40.12245h73.725v40.12245z" fill="#ffffff" stroke="#000000" stroke-width="2.5"/><text transform="translate(254.66667,248.18333) scale(0.31943,0.31943)" font-size="40" xml:space="preserve" fill="#000000" fill-rule="nonzero" stroke="none" stroke-width="1" stroke-linecap="butt" stroke-linejoin="miter" stroke-miterlimit="10" stroke-dasharray="" stroke-dashoffset="0" font-family="Pixel" font-weight="normal" text-anchor="start" style="mix-blend-mode: normal"><tspan x="0" dy="0">Command</tspan></text><path d="M259.406,227.04994v5.50614c0,0.10925 -0.0437,0.2185 -0.1311,0.2622c-0.69919,0.61179 -1.57318,0.91769 -2.46902,0.91769c-0.89584,0 -1.76983,-0.32775 -2.46902,-0.91769c-0.56809,-0.4807 -1.26729,-0.76474 -2.01018,-0.76474c-0.67734,0 -1.33284,0.2185 -1.87908,0.65549v3.64891c0,0.2185 -0.1748,0.3933 -0.3933,0.3933c-0.2185,0 -0.3933,-0.1748 -0.3933,-0.3933v-10.65261c0,-0.1748 0.27732,0.0521 0.38657,-0.01345c0.69919,-0.56809 1.36141,0.13446 2.2354,0.13446c0.89584,0 1.79168,0.32775 2.49087,0.91769c0.56809,0.4807 1.26729,0.74289 2.01018,0.74289c0.74289,0 1.44209,-0.2622 2.01018,-0.74289c0.1311,-0.0874 0.28405,-0.10925 0.41515,-0.0437c0.1311,0.06555 0.19665,0.19665 0.19665,0.3496z" fill="#549a10" stroke="#000000" stroke-width="0.5"/></g></g></svg>