<svg version="1.1" xmlns="http://www.w3.org/2000/svg" xmlns:xlink="http://www.w3.org/1999/xlink" width="139.13897" height="105.07895" viewBox="0,0,139.13897,105.07895"><g transform="translate(-93.09224,-100.84559)"><g data-paper-data="{&quot;isPaintingLayer&quot;:true}" stroke-miterlimit="10" stroke-dasharray="" stroke-dashoffset="0" style="mix-blend-mode: normal"><path d="" fill="#5aff00" fill-rule="nonzero" stroke="none" stroke-width="0.5" stroke-linecap="butt" stroke-linejoin="miter"/><g><path d="M162.50898,162.21745c0.61328,0.18409 8.96258,4.58172 10.14469,2.16457c1.44096,-2.84493 2.96901,-7.88131 7.54163,-6.16634c4.57263,1.71496 0.35908,9.45098 -1.76993,11.92633c-5.24087,5.45466 -12.64044,2.07586 -14.35157,1.04045c-1.71112,-1.0354 -4.6682,-2.75461 -5.64016,-5.1661c-0.95397,-2.63438 1.93785,-4.55464 4.07533,-3.7989z" fill="#ffab19" fill-rule="evenodd" stroke="#001026" stroke-width="1.2" stroke-linecap="round" stroke-linejoin="round"/><g fill-rule="evenodd"><path d="M143.61892,172.06547c0.8,0.4 2.5,1.3 0.1,4.7c-2.4,3.4 -9.3,4.1 -10.1,4.1c-3.1,0.1 -6.9,0.1 -11.1,-1.3c-12.2,-4 -12.3,-17.1 -8.4,-19.2c3.8,-2.1 5.5,6 11,10.9c2.4,2.2 5.3,3 7.7,3.5c3.4,0.6 9.9,-3.2 10.8,-2.7z" fill="#ffab19" stroke="#001026" stroke-width="1.2" stroke-linecap="round" stroke-linejoin="round"/><path d="M118.81892,163.96547c1.6,2.7 4.7,6.5 4.7,6.5c0,0 -3.7,-0.9 -5.8,0.8c-1.7,1.3 -1.3,3.5 -1.1,4.2c-1.3,-1.3 -2.9,-3.1 -3.9,-6.6c-1,-3.5 0,-7.7 2,-8.3c2,-0.4 2.5,1.1 4.1,3.4z" fill="#ffffff" stroke="none" stroke-width="1" stroke-linecap="butt" stroke-linejoin="miter"/></g><path d="M148.61892,182.46547c-1.8,1.2 -8,5.6 -15.9,8.1l-0.4,0.1c-0.4,0.1 -0.6,0.6 -0.4,1c1.7,2.4 4.8,7.2 -0.7,8.9c-5.3,1.7 -15.2,-12.4 -11,-16.1c1.9,-1.4 3.6,-0.7 4.5,-0.3c0.5,0.2 1,0.2 1.5,0.1c1.2,-0.4 3.4,-1.2 5.1,-2.1c4.3,-2.2 5.3,-3.1 7.3,-4.6c2,-1.5 6.6,-5.2 10.3,-2c3.2,2.7 1.4,5.7 -0.3,6.9z" fill="#ffab19" fill-rule="evenodd" stroke="#001026" stroke-width="1.2" stroke-linecap="round" stroke-linejoin="round"/><g fill-rule="evenodd"><path d="M164.61892,184.96547c2.1,1.9 6.7,5.8 6.7,5.8c0,0 14.3,-2.5 14.3,4.7c0,4.3 -7.2,5.3 -16.9,4.4c-0.6,-0.1 -1.2,-0.3 -1.7,-0.7c-2.2,-1.9 -8.5,-7.5 -12.5,-11.4c-5.9,-5.8 -10.8,-9.6 -10.8,-9.6c-8.5,-8.3 -1.6,-11.8 1.1,-16.6c2.5,-4.1 3.6,-3.3 9.6,-2.1c3.4,0.5 5.4,0.8 7.6,0.7c3.3,-0.1 2.7,4.7 1.8,7.2c0,0 -1.4,3.7 -2.7,5.6c-1.6,2.3 -2.8,3.8 -4,4.7z" fill="#ffab19" stroke="#001026" stroke-width="1.2" stroke-linecap="round" stroke-linejoin="round"/><path d="M156.21892,177.56547c0,0 -1.5,-1.2 -3.1,-2.7c-2,-1.8 -4,-3.3 -2,-6.4c1.8,-2.4 3.5,-5.6 8,-2.7c4.3,2.7 2.4,5.2 2.4,5.2c-2.2,4.5 -5.3,6.6 -5.3,6.6z" fill="#ffffff" stroke="none" stroke-width="1" stroke-linecap="butt" stroke-linejoin="miter"/></g><path d="M163.57345,101.22173c0.22603,-0.28091 0.73297,-0.33579 0.94855,0.01566l5.69539,9.42404c0,0 7.51661,2.55941 10.3205,5.13587c4.70495,4.28409 6.15267,8.54603 6.15267,8.54603c0,0 7.4029,-0.13077 10.2604,4.94512c2.8575,5.07589 1.90652,16.69896 -14.91252,25.87773c-16.81904,9.17877 -32.75371,8.85239 -42.95145,0.11305c-10.19775,-8.73933 -3.60256,-25.07651 -3.9344,-24.13318l-7.38226,-16.44148c-0.21559,-0.35146 0.17115,-0.78785 0.61276,-0.7173l13.9148,3.89851c0,0 3.7811,-2.97376 8.20374,-4.57697c2.61047,-1.03221 4.95963,-1.56271 7.27352,-1.8724z" fill="#ffab19" fill-rule="evenodd" stroke="#001026" stroke-width="1.2" stroke-linecap="butt" stroke-linejoin="miter"/><path d="M186.52465,124.815c0,0 7.12199,-0.3568 9.97949,4.71909c2.8575,5.07589 1.37475,16.34228 -15.28359,25.36557c-21.57875,12.04149 -36.87467,1.76313 -33.6699,-10.36038c3.17471,-12.21889 16.87787,-6.99553 24.70927,-10.09217c6.71692,-2.64064 5.58666,-8.88984 14.26473,-9.6321z" fill="#ffffff" fill-rule="evenodd" stroke="none" stroke-width="1" stroke-linecap="butt" stroke-linejoin="miter"/><path d="M158.43565,153.79599c-0.12021,-0.38151 3.62683,-8.95383 4.03839,-8.97866c2.02254,0.09665 4.33178,-4.71997 10.17464,-6.14159c5.24054,-1.33668 9.4176,0.44015 10.75811,-0.29676c0.44684,-0.24564 6.09384,6.36279 6.05335,6.89978c-0.04699,2.84566 -5.95135,-1.58475 -16.1463,0.99846c-8.97987,1.78097 -13.69177,12.28242 -14.87819,7.51877z" fill="#ffffff" fill-rule="evenodd" stroke="#001026" stroke-width="1.2" stroke-linecap="round" stroke-linejoin="round"/><path d="M204.40469,120.33456c-3.34076,5.0368 -10.17789,7.29593 -10.17789,7.29593" fill="none" fill-rule="evenodd" stroke="#001026" stroke-width="1.2" stroke-linecap="round" stroke-linejoin="round"/><path d="M206.53062,131.40752c-5.85852,2.37017 -10.14924,1.73003 -10.14924,1.73003" fill="none" fill-rule="evenodd" stroke="#001026" stroke-width="1.2" stroke-linecap="round" stroke-linejoin="round"/><path d="M171.09705,132.08749c2.00293,-0.63109 4.16134,-1.10149 4.46708,-0.4639c0.51611,1.30523 -0.0731,4.42659 -1.56908,5.0028c-1.65669,0.73169 -6.41385,-0.39055 -6.89468,-1.91659c-0.456,-1.11448 2.08914,-2.02126 3.99669,-2.62231z" fill="#001026" fill-rule="evenodd" stroke="#001026" stroke-width="1.2" stroke-linecap="round" stroke-linejoin="round"/><path d="M127.72639,144.18029c0,0 9.04393,0.08609 13.31375,1.99096" fill="none" fill-rule="evenodd" stroke="#001026" stroke-width="1.2" stroke-linecap="round" stroke-linejoin="round"/><path d="M142.3781,149.41931c-3.59035,2.91366 -10.97886,4.08837 -10.97886,4.08837" fill="none" fill-rule="evenodd" stroke="#001026" stroke-width="1.2" stroke-linecap="round" stroke-linejoin="round"/><path d="M178.8355,117.38217c4.11829,3.42048 5.74633,8.25468 3.6167,10.81293c-2.12963,2.55825 -7.14809,1.93773 -11.36176,-1.4527c-4.11829,-3.42048 -5.74633,-8.25468 -3.6167,-10.81293c2.09958,-2.65363 7.24347,-1.96778 11.36176,1.4527z" fill="#ffffff" fill-rule="evenodd" stroke="#001026" stroke-width="1.2" stroke-linecap="round" stroke-linejoin="round"/><path d="M176.59349,119.08464c0.33057,1.04915 -0.16198,2.14797 -1.11575,2.44849c-0.95378,0.30052 -1.98726,-0.31746 -2.31784,-1.36661c-0.33057,-1.04915 0.16198,-2.14797 1.11575,-2.44849c0.95378,-0.30052 1.98726,0.31746 2.31784,1.36661" fill="#001026" fill-rule="evenodd" stroke="none" stroke-width="1" stroke-linecap="butt" stroke-linejoin="miter"/><path d="M156.02334,127.50567c4.18362,3.29505 5.61568,8.50554 3.61148,11.12912c-2.57647,2.80389 -7.19381,2.7909 -11.37743,-0.50414c-4.279,-3.26499 -6.18272,-8.64141 -3.88717,-11.67133c2.2655,-3.1253 7.4695,-2.24869 11.65312,1.04636z" fill="#ffffff" fill-rule="evenodd" stroke="#001026" stroke-width="1.2" stroke-linecap="round" stroke-linejoin="round"/><path d="M153.78394,129.05005c0.33057,1.04915 -0.16198,2.14797 -1.11575,2.44849c-0.95378,0.30052 -1.98726,-0.31746 -2.31784,-1.36661c-0.33057,-1.04915 0.16198,-2.14797 1.11575,-2.44849c0.98383,-0.20514 1.98726,0.31746 2.31784,1.36661" fill="#001026" fill-rule="evenodd" stroke="none" stroke-width="1" stroke-linecap="butt" stroke-linejoin="miter"/><path d="M137.55587,158.15038c1.25984,0.33584 3.05181,1.02784 4.81363,1.62449c2.92632,0.96263 7.56466,3.69134 3.33987,6.91486c-3.36175,2.63603 -5.77143,0.29182 -10.80591,-1.36773c-2.61013,-0.95773 -5.01482,-1.48609 -5.09119,-4.71318c-0.1016,-3.63864 -1.9138,-11.33041 4.70653,-9.96249c4.97418,1.46885 3.71299,2.67569 2.4594,6.00863c-0.13532,0.56718 0.1409,1.10912 0.57767,1.49542z" data-paper-data="{&quot;index&quot;:null}" fill="#ffab19" fill-rule="evenodd" stroke="#001026" stroke-width="1.2" stroke-linecap="round" stroke-linejoin="round"/><path d="M102.72682,173.66048c0.96989,-0.52531 1.99493,-0.87909 3.05149,-1.11573c1.07445,-0.28065 2.20484,-0.43041 3.37155,-0.43041c0.07168,0 0.14323,0.00057 0.21464,0.00169c1.98944,-0.08004 3.99662,0.02743 5.8807,-0.00169c3.84945,-0.05949 8.04718,-2.62295 12.02538,-2.92397c4.26352,-0.3226 8.38286,0.51669 12.64657,1.22019c1.722,0.28413 6.19477,-3.5237 7.72126,-4.34195c3.96655,-2.1262 8.50092,-3.8905 12.99171,-4.7171c8.19542,-1.5085 16.22787,3.61828 24.88481,3.3414c3.15678,-0.10096 6.21663,-1.29587 9.38259,-0.61845c2.68353,0.57419 5.82616,1.07277 8.34996,2.16458c0.50809,0.2198 1.15932,1.40805 1.80036,1.41676c4.61301,0.06266 4.99635,-1.51965 10.72458,1.05705c1.91334,0.86066 6.32613,10.48074 6.42304,10.82291c0.11492,0.40572 -0.14735,0.75185 -0.46998,1.09722c1.4628,-0.0733 2.94226,0.07619 4.43964,0.90006c3.80134,2.09153 6.06609,7.67898 6.06609,11.68166c0,2.20758 -0.54829,4.50403 -1.6858,6.42075c-0.58391,0.9839 -2.23334,0.88539 -3.06554,1.68669c-0.8322,0.8013 -0.72989,2.38947 -1.75174,2.9517c-3.62688,1.99554 -9.58918,1.6232 -13.41258,1.6232c-6.35253,0 -8.32314,-4.72165 -13.91084,-5.95236c-6.68437,-1.47225 -16.73873,2.1093 -23.73978,2.47381c-4.99807,0.26022 -9.89739,1.3323 -14.77301,1.54613c-9.56864,0.41965 -19.21265,-0.57668 -28.74313,-0.57668c-8.76725,0 -15.64433,1.86458 -25.21045,1.19513c-0.36654,-0.02566 -0.75729,-0.0383 -1.15945,-0.0497c-6.55142,-0.56431 -11.68665,-5.8644 -11.68665,-12.31934c0,-3.1415 1.21632,-6.00946 3.22026,-8.19109c0.14582,-3.83679 2.1066,-7.22746 5.08016,-9.39969c0.39549,-0.36865 0.83644,-0.69321 1.33415,-0.96278z" fill="#5aff00" fill-rule="nonzero" stroke="none" stroke-width="0.5" stroke-linecap="butt" stroke-linejoin="miter"/></g></g></g></svg>