<svg version="1.1" xmlns="http://www.w3.org/2000/svg" xmlns:xlink="http://www.w3.org/1999/xlink" width="424.25" height="198.45007" viewBox="0,0,424.25,198.45007"><g transform="translate(290,-58.86482)"><g data-paper-data="{&quot;isPaintingLayer&quot;:true}" fill-rule="nonzero" stroke-linejoin="miter" stroke-miterlimit="10" stroke-dasharray="" stroke-dashoffset="0" style="mix-blend-mode: normal"><path d="M-290,200.50005c0,-1.38071 1.11929,-2.5 2.5,-2.5c1.38071,0 2.5,1.11929 2.5,2.5c0,1.38071 -1.11929,2.5 -2.5,2.5c-1.38071,0 -2.5,-1.11929 -2.5,-2.5z" fill="#ff9400" stroke="none" stroke-width="0.5" stroke-linecap="butt"/><path d="M-99.75,257.31489v-141.31489h230.53659v141.31489z" fill="#b3b3b3" stroke="none" stroke-width="0" stroke-linecap="butt"/><g data-paper-data="{&quot;index&quot;:null}" stroke="#000000"><path d="M38.15408,207.51116l7.97281,-11.39375l15.77597,11.03927l-7.97281,11.39375z" fill="#000000" stroke-width="0.5" stroke-linecap="butt"/><path d="M65.49504,210.89505l-5.07765,-3.5531" fill="none" stroke-width="4" stroke-linecap="round"/><path d="M58.82454,209.68638l5.054,4.77626" fill="none" stroke-width="4" stroke-linecap="round"/><path d="M59.61886,215.13602l-3.39934,-2.87285" fill="none" stroke-width="4" stroke-linecap="round"/><path d="M55.31646,214.29706l2.18802,2.23761" fill="none" stroke-width="4" stroke-linecap="round"/><path d="M56.34541,218.77953l-4.09866,-3.93004" fill="none" stroke-width="4" stroke-linecap="round"/></g><text transform="translate(-88.75,106.00001) scale(0.93337,0.93337)" font-size="40" xml:space="preserve" fill="#7aabff" fill-rule="nonzero" stroke="none" stroke-width="1" stroke-linecap="butt" stroke-linejoin="miter" stroke-miterlimit="10" stroke-dasharray="" stroke-dashoffset="0" font-family="Pixel" font-weight="normal" text-anchor="start" style="mix-blend-mode: normal"><tspan x="0" dy="0">SBWin 1.1</tspan></text><path d="M-100.75,139l234,-1" fill="none" stroke="#000000" stroke-width="2" stroke-linecap="round"/><path d="M-73.5,126.00001h-14" fill="none" stroke="#000000" stroke-width="2" stroke-linecap="round"/><path d="M-67.75,116.00001l1,22" fill="none" stroke="#000000" stroke-width="2" stroke-linecap="round"/><text transform="translate(-57.5,135.90756) scale(0.5,0.5)" font-size="40" xml:space="preserve" fill="#000000" fill-rule="nonzero" stroke="none" stroke-width="1" stroke-linecap="butt" stroke-linejoin="miter" stroke-miterlimit="10" stroke-dasharray="" stroke-dashoffset="0" font-family="Pixel" font-weight="normal" text-anchor="start" style="mix-blend-mode: normal"><tspan x="0" dy="0">0 to go back.</tspan></text><path d="M42.57036,211.68245c0,19.83211 -16.59157,35.90922 -37.05831,35.90922c-20.46674,0 -37.05831,-16.07711 -37.05831,-35.90922c0,-19.83211 16.59157,-35.90922 37.05831,-35.90922c20.46674,0 37.05831,16.07711 37.05831,35.90922z" fill="#dc5b00" stroke="#000000" stroke-width="6.5" stroke-linecap="butt"/><path d="M-10.97727,201.00023c-0.69578,-1.06907 -1.12919,-2.40889 -1.22767,-4.15714c-0.0808,-1.43432 -0.53638,-3.07467 0.31598,-4.29926c2.66083,-3.82283 9.39995,-2.89227 13.42677,-2.10757c1.53149,0.29844 3.51025,0.20004 4.47122,1.29108c1.03415,1.17412 0.45409,2.94641 0.56664,4.42865c0.07657,1.00837 0.22373,2.37454 0.19802,3.77355c4.45473,-0.1609 8.98105,0.0939 13.38931,0.0939c3.02234,0 8.75858,-0.65783 11.70697,0.1129c1.09946,0.28741 1.84323,1.20632 2.82195,1.73258c3.4905,1.87683 7.00251,2.79318 10.12028,5.28848c0.85769,0.68645 1.38957,1.70486 2.38508,2.22774c0.97361,0.51138 2.45521,0.08051 3.29183,0.75399c1.69922,1.36787 1.71398,3.9774 2.85946,5.64005c0.64832,0.94102 1.55615,1.72298 2.33423,2.58448c0.76067,1.94683 1.55375,3.88506 2.42333,5.79626l0.62506,1.63826c0,0 0.1374,0.36277 0.12579,0.83623c6.06323,5.9623 7.71402,14.63305 9.42637,22.38041c0.49669,0.31385 0.91798,0.84627 0.91798,1.74943c0,2.20013 -2.5,2.20013 -2.5,2.20013l-3.026,-1.76865c-0.77765,-3.42186 -1.69496,-6.60246 -2.81764,-9.9172c-1.56946,-4.63386 -2.14185,-8.66949 -6.26598,-12.21763c0,0 -1.09284,-0.96176 -0.70076,-2.12908l-0.42722,-1.13771c-0.79558,-1.75211 -1.51861,-3.53088 -2.17305,-5.32765c-1.46214,-1.59767 -2.81857,-3.34945 -3.57242,-5.29062c-0.20774,-0.53492 0.08626,-1.3135 -0.42664,-1.65382c-0.65769,-0.43638 -1.74832,0.11707 -2.45364,-0.25728c-2.26077,-1.19993 -3.71496,-3.35048 -5.91321,-4.63724c-2.10911,-1.23458 -4.72531,-1.81012 -6.86151,-3.0155c-0.64812,-0.36571 -1.03796,-1.10371 -1.77443,-1.30121c-2.32046,-0.62228 -7.87986,0.1129 -10.12583,0.1129c-4.74532,0 -9.70819,-0.37026 -14.50903,-0.06712c-0.35614,0.50993 -0.81793,0.94072 -1.41307,1.25543c-0.91898,0.48595 -2.03812,0.44159 -3.15692,0.37751c-1.09501,0.84249 -2.58949,0.27883 -2.58949,0.27883c-0.27469,-0.10362 -0.54712,-0.20456 -0.8169,-0.30357c-2.89596,-0.0379 -6.26576,-0.52517 -7.80931,-2.91771c-0.46648,-0.72304 -0.73317,-1.4028 -0.84556,-2.04684z" fill="#000000" stroke="none" stroke-width="0.5" stroke-linecap="butt"/><text transform="translate(-96.47014,154.89783) scale(0.32847,0.32847)" font-size="40" xml:space="preserve" fill="#000000" fill-rule="nonzero" stroke="none" stroke-width="1" stroke-linecap="butt" stroke-linejoin="miter" stroke-miterlimit="10" stroke-dasharray="" stroke-dashoffset="0" font-family="Pixel" font-weight="normal" text-anchor="start" style="mix-blend-mode: normal"><tspan x="0" dy="0">720p - Channel 1</tspan></text><text transform="translate(82.21414,106.8275) scale(0.5,0.5)" font-size="40" xml:space="preserve" fill="#000000" fill-rule="nonzero" stroke="none" stroke-width="1" stroke-linecap="butt" stroke-linejoin="miter" stroke-miterlimit="10" stroke-dasharray="" stroke-dashoffset="0" font-family="Sans Serif" font-weight="normal" text-anchor="start" style="mix-blend-mode: normal"><tspan x="0" dy="0">x86</tspan></text><g stroke="#000000"><path d="M-39.90231,219.11596l-8.76677,-10.79477l14.9466,-12.1386l8.76677,10.79477z" fill="#000000" stroke-width="0.5" stroke-linecap="butt"/><path d="M-51.98489,212.30673l4.81071,-3.90693" fill="none" stroke-width="4" stroke-linecap="round"/><path d="M-45.41784,210.6244l-4.69969,5.12527" fill="none" stroke-width="4" stroke-linecap="round"/><path d="M-45.82062,216.11688l3.18531,-3.10847" fill="none" stroke-width="4" stroke-linecap="round"/><path d="M-43.61168,217.36082l2.02249,-2.38827" fill="none" stroke-width="4" stroke-linecap="round"/><path d="M-38.48784,215.30417l-3.80729,4.21294" fill="none" stroke-width="4" stroke-linecap="round"/></g><text transform="translate(-21.95801,220.39132) scale(0.5,0.5)" font-size="40" xml:space="preserve" fill="#9966ff" fill-rule="nonzero" stroke="none" stroke-width="1" stroke-linecap="butt" stroke-linejoin="miter" stroke-miterlimit="10" stroke-dasharray="" stroke-dashoffset="0" font-family="Sans Serif" font-weight="normal" text-anchor="start" style="mix-blend-mode: normal"><tspan x="0" dy="0">Oil</tspan></text></g></g></svg>