<svg version="1.1" xmlns="http://www.w3.org/2000/svg" xmlns:xlink="http://www.w3.org/1999/xlink" width="424.25" height="198.45007" viewBox="0,0,424.25,198.45007"><g transform="translate(290,-58.86482)"><g data-paper-data="{&quot;isPaintingLayer&quot;:true}" fill-rule="nonzero" stroke-linejoin="miter" stroke-miterlimit="10" stroke-dasharray="" stroke-dashoffset="0" style="mix-blend-mode: normal"><path d="M-290,200.50002c0,-1.38071 1.11929,-2.5 2.5,-2.5c1.38071,0 2.5,1.11929 2.5,2.5c0,1.38071 -1.11929,2.5 -2.5,2.5c-1.38071,0 -2.5,-1.11929 -2.5,-2.5z" fill="#ff9400" stroke="none" stroke-width="0.5" stroke-linecap="butt"/><path d="M-99.75,257.31489v-141.31489h230.53659v141.31489z" fill="#b3b3b3" stroke="none" stroke-width="0" stroke-linecap="butt"/><text transform="translate(-88.75,106.00001) scale(0.93337,0.93337)" font-size="40" xml:space="preserve" fill="#7aabff" fill-rule="nonzero" stroke="none" stroke-width="1" stroke-linecap="butt" stroke-linejoin="miter" stroke-miterlimit="10" stroke-dasharray="" stroke-dashoffset="0" font-family="Pixel" font-weight="normal" text-anchor="start" style="mix-blend-mode: normal"><tspan x="0" dy="0">SBWin 1.1</tspan></text><path d="M-100.75,139l234,-1" fill="none" stroke="#000000" stroke-width="2" stroke-linecap="round"/><path d="M-73.5,126.00001h-14" fill="none" stroke="#000000" stroke-width="2" stroke-linecap="round"/><path d="M-66.75,138l-1,-22" fill="none" stroke="#000000" stroke-width="2" stroke-linecap="round"/><text transform="translate(-57.5,135.90756) scale(0.5,0.5)" font-size="40" xml:space="preserve" fill="#000000" fill-rule="nonzero" stroke="none" stroke-width="1" stroke-linecap="butt" stroke-linejoin="miter" stroke-miterlimit="10" stroke-dasharray="" stroke-dashoffset="0" font-family="Pixel" font-weight="normal" text-anchor="start" style="mix-blend-mode: normal"><tspan x="0" dy="0">0 to go back.</tspan></text><path d="M19.01391,211.68242c0,19.83211 -16.59157,35.90922 -37.05831,35.90922c-20.46674,0 -37.05831,-16.07711 -37.05831,-35.90922c0,-19.83211 16.59157,-35.90922 37.05831,-35.90922c20.46674,0 37.05831,16.07711 37.05831,35.90922z" fill="none" stroke="#000000" stroke-width="6.5" stroke-linecap="butt"/><text transform="translate(-96.47014,154.89783) scale(0.32847,0.32847)" font-size="40" xml:space="preserve" fill="#000000" fill-rule="nonzero" stroke="none" stroke-width="1" stroke-linecap="butt" stroke-linejoin="miter" stroke-miterlimit="10" stroke-dasharray="" stroke-dashoffset="0" font-family="Pixel" font-weight="normal" text-anchor="start" style="mix-blend-mode: normal"><tspan x="0" dy="0">720p - Channel 1</tspan></text><text transform="translate(82.21414,106.8275) scale(0.5,0.5)" font-size="40" xml:space="preserve" fill="#000000" fill-rule="nonzero" stroke="none" stroke-width="1" stroke-linecap="butt" stroke-linejoin="miter" stroke-miterlimit="10" stroke-dasharray="" stroke-dashoffset="0" font-family="Sans Serif" font-weight="normal" text-anchor="start" style="mix-blend-mode: normal"><tspan x="0" dy="0">x86</tspan></text><path d="M-34.52347,254.11663v-14.36369h11.49095v14.36369z" fill="#000000" stroke="#000000" stroke-width="0.5" stroke-linecap="butt"/><path d="M-7.51974,252.39299v-8.04367h17.81098v8.04367z" fill="#000000" stroke="#000000" stroke-width="0.5" stroke-linecap="butt"/></g></g></svg>