<svg version="1.1" xmlns="http://www.w3.org/2000/svg" xmlns:xlink="http://www.w3.org/1999/xlink" width="424.25" height="198.45007" viewBox="0,0,424.25,198.45007"><g transform="translate(290,-58.86482)"><g data-paper-data="{&quot;isPaintingLayer&quot;:true}" fill-rule="nonzero" stroke-linejoin="miter" stroke-miterlimit="10" stroke-dasharray="" stroke-dashoffset="0" style="mix-blend-mode: normal"><path d="M-290,200.50001c0,-1.38071 1.11929,-2.5 2.5,-2.5c1.38071,0 2.5,1.11929 2.5,2.5c0,1.38071 -1.11929,2.5 -2.5,2.5c-1.38071,0 -2.5,-1.11929 -2.5,-2.5z" fill="#ff9400" stroke="none" stroke-width="0.5" stroke-linecap="butt"/><path d="M-99.75,257.31489v-141.31489h230.53659v141.31489zM-20.52282,254.42062c2.45267,0.92487 5.21789,0.50747 7.82683,0.7612c19.33333,0 38.66667,0 58,0c3.33333,0 6.66667,0 10,0c6.66667,0 13.61984,1.93338 20,0h3c3.39603,0 6.39667,-1.69285 8.20411,-4.28073c2.26855,-0.14121 4.42221,-0.32529 4.60906,-0.42493c3.72635,-1.98726 3.77555,-5.32213 4.72949,-8.6639c1.91757,-6.71743 2.08768,-13.52085 3.88176,-20.20286c0.3248,-1.2097 0.67466,-2.42681 1.04464,-3.65036c0.59283,-0.81343 1.1368,-1.65741 1.59514,-2.55344c1.03935,-2.0319 1.01133,-4.45226 1.6008,-6.65711c0.60156,-2.25005 1.64045,-3.97111 2.09264,-6.28125c3.63399,-10.14609 7.2376,-20.45051 8.22379,-30.41007c0.47254,-4.77216 2.31803,-10.9842 0.80223,-15.65316c-0.13523,-0.41652 -0.31997,-0.79675 -0.54593,-1.14677c-1.79319,-2.77778 -6.18195,-3.653 -9.01474,-5.66634l-0.63733,0.28495c-1.56459,-1.29181 -3.5288,-2.11687 -5.67943,-2.26198c-0.23573,-0.00533 -0.46495,-0.01165 -0.68325,-0.02297c-14.73807,-0.7646 -30.26805,-0.30432 -45.0098,-0.5c-3.75299,-0.04982 -7.83741,-0.40521 -11.58858,-0.83453c-2.30239,-0.26351 -4.46591,-1.60328 -6.90161,-1.66547c-7.60669,-0.19421 -15.39822,0.26996 -23,0.5c-3.78928,0.11467 -7.67255,1.95309 -11.42582,2c-14.31405,0.17889 -16.49941,-1.31356 -25.09701,0.632c-1.20032,-0.78725 -2.58026,-1.3232 -4.06502,-1.53307c-0.26122,-0.03692 -0.52569,-0.06375 -0.793,-0.08008c-3.78207,-0.32699 -8.55323,-0.02063 -8.61914,-0.01885c-6.76695,0.18231 -14.4667,2.22459 -19.38525,6.90983c-1.65491,1.57641 -1.51377,5.43943 -1.81617,7.89587c-1.15537,9.38523 -0.24878,18.91072 -0.29857,28.36667c-0.01101,2.09087 -1.59812,3.88248 -2.33346,5.73783c-2.48405,6.26763 -5.21202,12.54443 -6.66654,19.08979c-1.47155,6.62199 0.99598,14.1983 -0.30126,21.13431c-1.38497,7.40513 -2.57092,19.86569 9.30126,19.86569c3.35927,0 6.37463,-2.62463 8.75,-5c0.25251,-0.25251 0.4452,-0.54239 0.59385,-0.85851c0.22407,0.35359 0.47993,0.67152 0.77089,0.94868c1.24393,1.18492 2.54681,2.31267 3.91312,3.3541c7.1749,5.4689 11.27928,-1.44591 17.77973,-0.77117c0.88807,0.09218 3.42037,0.40511 4.97069,0.41583c0.73593,0.54085 1.46588,0.97455 2.17189,1.24077z" fill="#b3b3b3" stroke="none" stroke-width="0" stroke-linecap="butt"/><path d="M-9.93478,209.00866c0.22666,0.5158 0.01996,1.09053 -0.16673,1.66728c-0.22387,-0.79756 -0.42505,-1.68656 -0.58696,-2.62189c0.31658,0.27313 0.58789,0.57733 0.75368,0.95461z" fill="#b3b3b3" stroke="none" stroke-width="0" stroke-linecap="butt"/><path d="M-9.60109,214.98887c-0.07269,-0.58932 -0.13102,-1.18294 -0.16991,-1.78235c0.35059,0.60775 0.79365,1.17522 1.19709,1.76247c-0.34216,0.00466 -0.68464,0.01149 -1.02717,0.01988z" fill="#b3b3b3" stroke="none" stroke-width="0" stroke-linecap="butt"/><text transform="translate(-88.75,106.00001) scale(0.93337,0.93337)" font-size="40" xml:space="preserve" fill="#7aabff" fill-rule="nonzero" stroke="none" stroke-width="1" stroke-linecap="butt" stroke-linejoin="miter" stroke-miterlimit="10" stroke-dasharray="" stroke-dashoffset="0" font-family="Pixel" font-weight="normal" text-anchor="start" style="mix-blend-mode: normal"><tspan x="0" dy="0">SBWin 1.1</tspan></text><path d="M-100.75,139l234,-1" fill="none" stroke="#000000" stroke-width="2" stroke-linecap="round"/><path d="M-73.5,126.00001h-14" fill="none" stroke="#000000" stroke-width="2" stroke-linecap="round"/><path d="M-66.75,138l-1,-22" fill="none" stroke="#000000" stroke-width="2" stroke-linecap="round"/><text transform="translate(-57.5,135.90756) scale(0.5,0.5)" font-size="40" xml:space="preserve" fill="#000000" fill-rule="nonzero" stroke="none" stroke-width="1" stroke-linecap="butt" stroke-linejoin="miter" stroke-miterlimit="10" stroke-dasharray="" stroke-dashoffset="0" font-family="Pixel" font-weight="normal" text-anchor="start" style="mix-blend-mode: normal"><tspan x="0" dy="0">0 to go back.</tspan></text><text transform="translate(82.21414,106.8275) scale(0.5,0.5)" font-size="40" xml:space="preserve" fill="#000000" fill-rule="nonzero" stroke="none" stroke-width="1" stroke-linecap="butt" stroke-linejoin="miter" stroke-miterlimit="10" stroke-dasharray="" stroke-dashoffset="0" font-family="Sans Serif" font-weight="normal" text-anchor="start" style="mix-blend-mode: normal"><tspan x="0" dy="0">x86</tspan></text><path d="M-19.97299,256.09091h105" fill="none" stroke="#b3b3b3" stroke-width="2" stroke-linecap="round"/><path d="M-25.47299,253.59091l113.5,0.5" fill="none" stroke="#b3b3b3" stroke-width="2" stroke-linecap="round"/><path d="M-31.97299,255.59091l150.5,-2.5" fill="none" stroke="#b3b3b3" stroke-width="2" stroke-linecap="round"/><text transform="translate(-94.97299,155.84091) scale(0.19764,0.34832)" font-size="40" xml:space="preserve" fill="#000000" fill-rule="nonzero" stroke="none" stroke-width="1" stroke-linecap="butt" stroke-linejoin="miter" stroke-miterlimit="10" stroke-dasharray="" stroke-dashoffset="0" font-family="Sans Serif" font-weight="normal" text-anchor="start" style="mix-blend-mode: normal"><tspan x="0" dy="0">You</tspan><tspan x="0" dy="46.15px">need</tspan><tspan x="0" dy="46.15px">StampR.</tspan></text></g></g></svg>