<svg version="1.1" xmlns="http://www.w3.org/2000/svg" xmlns:xlink="http://www.w3.org/1999/xlink" width="40" height="44" viewBox="0,0,40,44"><g transform="translate(-77.25,-94)"><g data-paper-data="{&quot;isPaintingLayer&quot;:true}" fill-rule="nonzero" stroke="none" stroke-linecap="butt" stroke-linejoin="miter" stroke-miterlimit="10" stroke-dasharray="" stroke-dashoffset="0" style="mix-blend-mode: normal"><path d="M77.25,138v-44h40v44z" fill="#000000" stroke-width="0"/><path d="M82.95305,100.5c0.20961,1.37072 0.53694,2.7332 0.76467,4.09955c0.29006,1.74037 -0.15054,3.72101 0.74673,5.24019c0.91386,1.54726 2.4861,2.70274 3.15726,4.36969c1.17629,2.92154 -0.93108,6.9044 0.16682,9.82005c0.09183,0.24385 0.46026,-0.24781 0.6709,-0.40119c1.34732,-0.98108 2.4298,-2.44121 4,-3c1.50497,-0.53557 3.19336,-0.10199 4.79057,-0.12829c2.19957,-0.03622 4.42295,0.35144 6.59955,0.03228c1.04294,-0.15293 1.96025,-0.82671 3,-1c0.78805,-0.13134 1.60175,-0.15528 2.40044,-0.07774c-0.88466,-0.72361 -1.25677,-1.8377 -2.16226,-3.19973c-1.19377,-2.39223 -2.89735,-5.10869 -3.31086,-7.88928c-0.13687,-0.92036 0.29635,-1.89668 0.04001,-2.79115c-0.37423,-1.30591 -1.40993,-2.34186 -1.87658,-3.61767c-0.22152,-0.60562 0.33642,-1.50762 -0.15207,-1.92861c-0.40627,-0.35013 -1.00477,0.41643 -1.53822,0.4719c-0.99464,0.10343 -2,0 -3,0c-4.66666,0 -9.33334,0 -14,0zM81.30053,95.68411c0.51024,-0.18411 0.94947,-0.18411 0.94947,-0.18411c4.66666,0 10.33334,0 15,0c1.38313,0 6.66034,-0.10518 7.46178,0.4719c1.20946,0.87087 1.21422,2.72245 1.84793,4.07139c2.24772,4.78467 2.44539,8.89846 4.85257,13.7019c1.00642,1.50505 4.68641,6.64747 4.20241,8.06615c-1.33092,3.90109 -5.49323,2.24455 -7.96423,2.65638c-2.45682,0.40947 -4.90977,1.02142 -7.40045,1.03228c-2.07023,0.00903 -4.28614,-0.89438 -6.20943,-0.12829c-2.94557,1.17329 -4.98827,6.21998 -9.3291,2.59881c-2.30845,-1.92574 -2.00583,-7.33297 -1.96147,-9.97052c0.01241,-0.73762 0.43925,-1.54045 0.12829,-2.20943c-0.64785,-1.39375 -2.09766,-2.28602 -2.84274,-3.63031c-1.11094,-2.00438 -0.87652,-4.49932 -1.25327,-6.75981c-0.40947,-2.45682 -1.01401,-4.90982 -1.03228,-7.40045c0,0 0,-2.5 2.5,-2.5c0.41536,0 0.76172,0.06902 1.05053,0.18411z" fill="#ffffff" stroke-width="0.5"/><path d="M85.75,134c0,-1.38071 1.11929,-2.5 2.5,-2.5c1.38071,0 2.5,1.11929 2.5,2.5c0,1.38071 -1.11929,2.5 -2.5,2.5c-1.38071,0 -2.5,-1.11929 -2.5,-2.5z" fill="#ffffff" stroke-width="0.5"/><path d="M92.75,132c0,-1.38071 1.11929,-2.5 2.5,-2.5c1.38071,0 2.5,1.11929 2.5,2.5c0,1.38071 -1.11929,2.5 -2.5,2.5c-1.38071,0 -2.5,-1.11929 -2.5,-2.5z" fill="#ffffff" stroke-width="0.5"/></g></g></svg>