<svg version="1.1" xmlns="http://www.w3.org/2000/svg" xmlns:xlink="http://www.w3.org/1999/xlink" width="520.2566" height="93.51068" viewBox="0,0,520.2566,93.51068"><g transform="translate(290,-109.48932)"><g data-paper-data="{&quot;isPaintingLayer&quot;:true}" fill-rule="nonzero" stroke="none" stroke-linecap="butt" stroke-linejoin="miter" stroke-miterlimit="10" stroke-dasharray="" stroke-dashoffset="0" style="mix-blend-mode: normal"><path d="M-290,200.5c0,-1.38071 1.11929,-2.5 2.5,-2.5c1.38071,0 2.5,1.11929 2.5,2.5c0,1.38071 -1.11929,2.5 -2.5,2.5c-1.38071,0 -2.5,-1.11929 -2.5,-2.5z" fill="#ff9400" stroke-width="0.5"/><path d="M148.71648,109.54419c0.12346,-0.12346 0.24693,0 0.24693,0l-0.00597,0.06526c1.2063,0.00762 2.10271,0.47338 3.17058,0.97135c0.96633,0.45062 2.07217,0.66539 2.93944,1.29849c1.33679,1.00513 2.57281,1.93481 3.56271,3.26131c0.25587,0.34287 0.58029,0.50171 0.86971,0.74543l0.05612,-0.05612l0.2328,0.2328l-0.05522,0.05523c0.03314,0.03963 0.06525,0.08185 0.09611,0.12719l-0.15365,0.05146l0.00614,0.06338l-0.27098,0.02627c-0.71651,0.34366 -1.27685,0.82759 -2.03156,1.01695c0,0 -0.11181,0.02795 -0.17646,-0.0524c-0.30506,0.16434 -0.58033,0.34984 -0.79064,0.57138c0.43294,0.32601 0.85151,1.33543 1.0914,1.80932c0.57339,1.13271 1.30324,2.13987 1.91835,3.24668c1.06261,1.91202 1.57398,4.13344 3.04474,5.76285l0.18306,0.09153c0.05906,0.028 0.0999,0.08816 0.0999,0.15786c0,0.09643 -0.07817,0.1746 -0.1746,0.1746h-0.20205c-0.64507,0.31995 -1.51632,0.33805 -2.23162,0.50244c-1.19506,0.27464 -2.3451,0.82292 -3.55547,1.00267c-0.84185,-0.82041 -0.98118,-2.21287 -1.60912,-3.10114c-0.57462,-0.81284 -0.95043,-1.89727 -1.47402,-2.86236c-0.49349,-0.91362 -0.81127,-2.0041 -1.43457,-2.83621c-0.52438,-0.70005 -1.024,-1.43637 -1.36659,-2.24984c-0.45079,0.10993 -0.89623,0.23561 -1.31831,0.44665c-0.2814,0.14013 -0.52546,0.23946 -0.84102,0.24591l-0.20345,0.10173c-0.02426,0.01277 -0.0519,0.02 -0.08123,0.02c-0.09643,0 -0.1746,-0.07817 -0.1746,-0.1746c0,-0.02074 0.00362,-0.04063 0.01025,-0.05908l0.09722,-0.29164c0.17944,-2.00106 0.18233,-4.10405 0.64943,-6.06204c0.29597,-1.2369 0.17432,-2.55445 0.17432,-3.83062c0,-0.01498 -0.00057,-0.03439 -0.00154,-0.05747c-0.01917,-0.00037 -0.03842,-0.00062 -0.05776,-0.00074l-0.23878,-0.16754c0,0 -0.12346,-0.12346 0,-0.24693z" fill="#000000" stroke-width="0.5"/><text transform="translate(115.5,138.16965) scale(0.34103,0.34103)" font-size="40" xml:space="preserve" fill="#000000" fill-rule="nonzero" stroke="none" stroke-width="1" stroke-linecap="butt" stroke-linejoin="miter" stroke-miterlimit="10" stroke-dasharray="" stroke-dashoffset="0" font-family="Pixel" font-weight="normal" text-anchor="start" style="mix-blend-mode: normal"><tspan x="0" dy="0">Z to quit.</tspan><tspan x="0" dy="48px">Space to stamp.</tspan><tspan x="0" dy="48px">X to  change.</tspan></text></g></g></svg>